<svg xmlns="http://www.w3.org/2000/svg" width="214" height="214" viewBox="234 338 214 214">
<g>
<path d="M 780.87 428.50 C780.69,425.75 780.30,435.88 780.00,451.00 L 779.45 478.50 L 779.23 451.80 L 779.00 425.11 L 774.25 424.80 C769.71,424.51 769.49,424.36 769.19,421.31 C768.89,418.15 768.94,418.11 773.69,417.81 L 778.50 417.50 L 779.07 410.00 L 779.64 402.50 L 779.82 412.17 C779.95,419.11 779.65,421.98 778.75,422.34 C778.06,422.62 778.51,422.88 779.75,422.92 C780.99,422.96 782.00,423.54 782.00,424.20 C782.00,425.13 782.27,425.13 783.20,424.20 C783.86,423.54 785.55,423.04 786.95,423.08 C788.35,423.12 789.05,423.35 788.50,423.58 C787.86,423.85 787.60,433.51 787.78,450.50 C787.94,465.07 787.69,477.00 787.23,477.00 C785.38,477.00 783.91,462.60 784.82,453.30 C785.64,444.90 785.17,437.58 783.39,431.00 L 782.71 428.50 L 781.96 431.00 C781.34,433.03 781.14,432.57 780.87,428.50 ZM 395.43 474.24 C393.21,480.75 391.38,481.05 391.45,474.89 C391.48,472.20 391.16,470.00 390.75,470.00 C390.34,470.00 390.00,470.45 390.00,471.00 C390.00,471.55 389.61,471.89 389.13,471.75 C388.65,471.61 387.31,472.62 386.14,474.00 L 384.01 476.50 L 385.52 472.74 C386.36,470.67 387.42,464.37 387.88,458.74 C388.48,451.39 388.77,450.05 388.88,454.00 C388.97,457.43 389.35,459.00 389.88,458.17 C390.55,457.11 390.86,457.18 391.37,458.53 C391.89,459.87 392.32,459.98 393.45,459.04 C396.16,456.79 396.31,452.19 393.89,445.70 C391.84,440.23 391.50,439.81 390.89,442.02 C390.49,443.47 390.23,441.38 390.27,437.00 C390.31,432.88 390.52,431.27 390.74,433.43 L 391.14 437.35 L 393.51 430.57 C394.82,426.84 396.13,423.53 396.44,423.23 C396.75,422.92 397.00,433.24 397.00,446.16 C397.00,464.85 396.68,470.58 395.43,474.24 ZM 810.35 452.25 C811.00,460.31 810.70,462.24 809.62,456.88 C807.82,447.85 810.04,435.39 814.35,430.38 L 816.63 427.72 L 816.41 431.00 C816.28,432.80 815.58,434.65 814.84,435.12 C813.80,435.78 813.78,435.97 814.78,435.98 C815.49,435.99 816.33,435.30 816.66,434.44 C816.99,433.59 817.87,433.12 818.62,433.41 C819.36,433.69 819.87,433.44 819.74,432.85 C819.61,432.26 820.62,431.61 822.00,431.40 C824.13,431.08 824.27,431.21 822.94,432.26 C821.13,433.70 818.00,441.14 818.00,444.02 C818.00,445.84 818.76,446.01 827.25,446.18 C836.47,446.35 836.48,446.36 829.78,446.93 C824.33,447.39 823.23,447.77 823.94,448.91 C824.42,449.69 826.10,450.89 827.66,451.58 C830.36,452.77 830.20,452.84 824.61,452.92 C820.24,452.98 818.38,453.45 817.39,454.75 C816.14,456.40 816.06,456.39 816.03,454.58 C816.01,453.52 816.70,451.89 817.55,450.95 C818.94,449.40 818.94,449.09 817.55,447.69 C816.70,446.84 816.00,445.63 816.00,445.01 C816.00,444.39 815.55,444.16 815.00,444.50 C814.45,444.84 813.99,444.53 813.97,443.81 C813.95,442.93 813.50,443.07 812.62,444.23 C811.89,445.19 810.95,445.64 810.51,445.23 C810.08,444.83 810.00,447.99 810.35,452.25 ZM 272.88 399.41 C269.37,405.28 267.36,406.69 268.40,402.56 C268.73,401.22 268.56,399.85 268.02,399.51 C267.42,399.14 267.29,399.62 267.68,400.70 C268.28,402.35 268.15,402.34 266.13,400.56 C263.94,398.63 263.92,398.63 264.60,400.56 C265.17,402.16 265.06,402.28 263.94,401.24 C262.83,400.21 262.33,400.40 261.22,402.24 C260.09,404.11 259.97,404.16 260.48,402.50 C261.50,399.20 267.27,390.05 270.80,386.15 C272.90,383.82 273.71,383.31 273.01,384.75 C272.31,386.20 272.29,387.00 272.93,387.00 C273.49,387.00 273.66,387.73 273.32,388.62 C272.79,389.99 273.02,390.06 274.85,389.08 C276.03,388.45 277.00,388.24 277.00,388.62 C277.00,389.00 277.82,388.56 278.83,387.65 C281.93,384.85 282.13,387.09 279.09,390.55 C277.51,392.35 274.72,396.33 272.88,399.41 ZM 869.75 452.46 C869.06,452.68 863.44,453.04 857.25,453.26 C845.65,453.66 842.22,452.76 850.96,451.60 C853.69,451.24 856.15,450.57 856.42,450.12 C856.90,449.36 854.45,447.79 851.00,446.65 C850.17,446.38 852.37,446.12 855.88,446.08 L 862.26 446.00 L 861.19 438.50 L 862.49 441.47 C863.33,443.40 863.48,445.25 862.92,446.72 C862.36,448.18 862.42,449.00 863.08,449.00 C863.65,449.00 863.84,449.45 863.50,450.00 C863.14,450.58 864.16,451.00 865.94,451.00 C868.73,451.00 869.00,450.71 869.00,447.72 C869.00,445.92 868.40,443.56 867.67,442.47 C866.19,440.27 865.72,433.00 867.06,433.00 C869.73,433.00 872.31,451.65 869.75,452.46 ZM 374.92 494.53 C372.62,495.34 368.67,495.98 366.12,495.96 L 361.50 495.93 L 364.50 493.45 C367.46,491.01 367.47,490.97 365.26,490.37 C364.03,490.04 363.27,489.37 363.57,488.89 C363.87,488.40 362.63,487.94 360.81,487.87 C358.99,487.80 360.56,487.35 364.30,486.87 C371.83,485.90 375.14,484.49 380.74,479.83 C382.81,478.11 382.02,479.15 379.00,482.14 C372.94,488.13 371.64,490.57 375.10,489.47 C376.40,489.06 377.01,489.17 376.65,489.76 C376.29,490.33 377.29,490.59 379.08,490.38 C381.80,490.06 381.96,490.19 380.60,491.54 C379.77,492.38 377.21,493.72 374.92,494.53 ZM 343.42 410.72 C341.93,413.07 340.60,415.00 340.46,415.00 C339.72,415.00 339.31,412.07 339.64,409.09 C339.89,406.84 339.43,405.03 338.31,403.79 C336.68,401.99 336.74,401.78 339.55,399.43 C341.17,398.08 343.85,396.28 345.50,395.43 C347.50,394.41 347.94,394.35 346.82,395.26 C345.72,396.15 345.44,397.10 346.01,398.01 C346.48,398.78 346.65,399.76 346.38,400.19 C346.11,400.62 346.59,400.71 347.45,400.38 C348.30,400.05 349.00,400.27 349.00,400.86 C349.00,401.45 349.67,401.68 350.50,401.36 C353.08,400.37 352.13,402.41 349.06,404.47 C347.45,405.55 344.91,408.36 343.42,410.72 ZM 353.60 492.85 C352.70,494.30 352.29,494.26 348.00,492.41 C343.16,490.32 336.35,483.48 333.17,477.50 C330.57,472.62 330.50,472.03 330.31,453.00 C330.14,435.68 330.26,434.00 331.39,438.00 C332.10,440.48 332.60,442.95 332.50,443.50 C330.87,452.91 330.86,454.19 332.41,458.06 C333.73,461.35 333.83,462.91 332.96,466.15 C331.74,470.66 332.55,476.40 334.25,475.34 C334.94,474.92 335.11,475.27 334.72,476.29 C334.29,477.42 334.53,477.73 335.55,477.34 C336.35,477.04 337.06,477.17 337.13,477.64 C337.20,478.11 337.36,479.56 337.50,480.85 C337.82,484.03 342.92,488.94 346.55,489.57 C348.17,489.85 350.03,490.79 350.68,491.64 C351.36,492.53 352.39,492.87 353.09,492.45 C353.87,491.96 354.05,492.11 353.60,492.85 ZM 395.00 520.11 C395.00,521.07 393.30,521.16 391.21,520.32 C389.58,519.67 391.52,517.00 393.62,517.00 C394.38,517.00 395.00,516.52 395.00,515.94 C395.00,515.36 395.45,515.16 396.00,515.50 C396.55,515.84 397.00,515.59 397.00,514.95 C397.00,514.31 397.65,514.04 398.45,514.34 C399.35,514.69 399.71,514.42 399.41,513.64 C398.72,511.83 402.16,509.05 405.41,508.78 C407.13,508.64 409.42,507.18 411.46,504.91 C415.62,500.31 417.63,498.95 416.14,501.75 C414.40,504.99 399.98,517.97 397.39,518.62 C396.08,518.95 395.00,519.62 395.00,520.11 ZM 942.00 447.54 C942.00,452.10 941.71,452.99 940.25,452.92 C936.55,452.75 936.00,451.92 938.10,449.68 C939.47,448.21 939.97,446.68 939.61,445.00 C939.33,443.62 938.69,440.36 938.20,437.75 C937.27,432.77 934.44,428.61 932.71,429.68 C932.15,430.03 931.98,429.84 932.33,429.27 C932.68,428.70 931.66,426.73 930.05,424.89 C928.44,423.05 927.38,421.31 927.70,421.02 C928.02,420.73 928.47,421.06 928.72,421.75 C928.97,422.44 929.79,423.00 930.55,423.00 C932.08,423.00 936.65,428.71 936.25,430.12 C936.11,430.60 936.42,431.00 936.93,431.00 C938.64,431.00 942.00,441.97 942.00,447.54 ZM 832.00 480.44 C832.00,481.41 830.65,480.98 825.93,478.53 C823.42,477.22 820.72,475.33 819.93,474.32 C818.66,472.70 818.67,472.64 820.05,473.71 C822.19,475.37 825.69,474.29 825.52,472.03 C825.45,471.03 823.95,468.57 822.19,466.57 C820.44,464.57 819.00,462.68 819.00,462.38 C819.00,461.49 821.13,462.47 821.33,463.45 C821.69,465.33 827.15,469.89 831.73,472.15 C836.28,474.39 836.37,474.51 833.69,474.82 C832.14,475.00 830.33,474.69 829.66,474.13 C828.98,473.57 827.85,473.47 827.15,473.91 C826.20,474.49 826.67,475.39 828.93,477.29 C830.62,478.71 832.00,480.12 832.00,480.44 ZM 387.45 517.40 C386.21,517.09 384.13,517.38 382.84,518.05 C378.94,520.08 381.11,518.42 389.39,513.01 C393.71,510.19 399.73,505.54 402.77,502.69 C405.88,499.77 407.78,498.49 407.11,499.75 C406.46,500.99 405.45,502.00 404.86,502.00 C404.27,502.00 404.02,502.62 404.32,503.38 C404.95,505.03 398.60,511.49 397.19,510.62 C396.65,510.28 395.96,510.65 395.67,511.43 C395.37,512.21 394.12,512.99 392.89,513.17 C391.66,513.35 390.44,514.17 390.17,515.00 C389.73,516.33 389.89,516.33 391.59,515.02 C393.47,513.56 393.47,513.57 391.61,515.75 C390.29,517.30 389.04,517.80 387.45,517.40 ZM 615.29 431.55 C612.69,434.00 610.51,436.00 610.43,436.00 C610.35,436.00 610.44,434.00 610.62,431.55 C610.81,429.10 610.53,426.83 610.00,426.50 C609.46,426.17 609.17,426.48 609.35,427.20 C609.53,427.91 609.48,428.16 609.25,427.74 C608.57,426.51 607.04,427.95 607.57,429.33 C607.84,430.02 606.92,431.58 605.53,432.79 C601.02,436.71 603.41,431.67 608.90,425.66 C611.91,422.38 616.51,419.45 614.13,422.34 C613.37,423.25 613.15,424.01 613.63,424.02 C614.11,424.02 613.83,424.47 613.00,425.00 C611.96,425.67 611.89,425.97 612.77,425.98 C613.72,426.00 613.63,426.71 612.42,428.75 C611.25,430.73 611.21,431.00 612.28,429.71 C613.10,428.73 614.73,427.75 615.89,427.52 C617.05,427.30 618.46,426.84 619.00,426.50 C621.42,425.00 619.62,427.46 615.29,431.55 ZM 437.35 453.75 C437.01,456.64 436.33,459.00 435.86,459.00 C435.12,459.00 434.46,451.62 434.79,447.00 C434.85,446.17 434.98,443.48 435.07,441.00 C435.31,434.90 436.03,431.90 437.11,432.57 C438.13,433.20 438.28,446.00 437.35,453.75 ZM 419.25 387.34 C419.94,387.62 420.05,387.87 419.50,387.90 C418.95,387.93 417.07,387.25 415.32,386.38 C413.11,385.30 412.32,384.33 412.74,383.24 C413.10,382.30 412.93,381.93 412.30,382.31 C411.03,383.10 407.53,379.40 407.51,377.25 C407.51,376.38 406.83,375.49 406.00,375.26 C404.67,374.89 404.67,374.98 406.00,376.00 C407.02,376.79 407.08,377.04 406.17,376.80 C405.45,376.61 404.85,376.01 404.85,375.48 C404.86,374.94 404.14,373.71 403.27,372.75 C401.83,371.15 401.83,371.00 403.35,371.00 C405.23,371.00 418.00,383.73 418.00,385.61 C418.00,386.28 418.56,387.06 419.25,387.34 ZM 890.37 459.80 C891.57,461.74 889.69,460.98 887.25,458.54 C885.00,456.29 884.20,453.00 885.90,453.00 C886.39,453.00 887.85,451.88 889.15,450.52 C891.43,448.11 893.71,447.05 892.54,448.93 C892.23,449.44 894.79,450.52 898.24,451.34 L 904.50 452.82 L 889.02 453.00 L 889.32 455.80 C889.49,457.33 889.96,459.13 890.37,459.80 ZM 322.00 532.18 C322.00,533.18 321.90,533.17 319.92,532.01 C319.05,531.50 316.89,530.83 315.12,530.52 C313.35,530.21 311.13,529.57 310.20,529.10 C309.26,528.63 306.70,527.48 304.50,526.54 C300.71,524.93 290.00,518.10 290.00,517.29 C290.00,517.08 291.97,518.07 294.37,519.48 C296.77,520.88 299.40,521.78 300.21,521.47 C301.02,521.16 302.26,521.60 302.96,522.45 C303.67,523.30 304.85,524.00 305.58,524.00 C306.32,524.00 307.73,524.85 308.71,525.89 C309.69,526.92 313.09,528.58 316.25,529.57 C319.41,530.56 322.00,531.73 322.00,532.18 ZM 740.62 446.50 C740.98,453.86 740.80,459.47 740.16,461.00 C739.40,462.85 739.11,458.20 739.06,443.25 C739.02,429.62 739.35,423.00 740.06,423.00 C740.64,423.00 740.86,423.41 740.55,423.91 C740.24,424.42 740.40,424.98 740.91,425.16 C741.48,425.37 741.49,427.27 740.95,430.00 C740.45,432.48 740.31,439.90 740.62,446.50 ZM 882.82 461.75 C883.51,462.99 883.81,464.00 883.48,464.00 C883.16,464.00 882.20,462.32 881.34,460.27 C879.05,454.79 879.88,439.94 882.80,434.32 C883.99,432.02 885.47,429.83 886.09,429.45 C886.80,429.00 886.75,429.60 885.94,431.13 C884.74,433.38 884.77,433.42 886.57,432.00 C888.42,430.54 888.43,430.57 886.72,433.00 C885.76,434.38 884.67,436.17 884.31,437.00 C883.94,437.83 883.16,438.82 882.57,439.22 C881.04,440.24 881.25,458.92 882.82,461.75 ZM 703.00 474.81 C703.00,475.48 694.44,476.10 693.81,475.48 C693.64,475.31 691.25,474.94 688.50,474.66 C684.57,474.25 683.58,474.24 683.16,473.74 C682.94,473.49 682.87,473.11 682.64,472.50 C682.13,471.17 682.46,471.17 685.65,472.50 C694.02,476.00 703.65,473.49 710.11,466.13 C712.35,463.58 713.73,462.40 713.19,463.50 C712.64,464.60 710.12,467.44 707.60,469.81 C705.07,472.17 703.00,474.42 703.00,474.81 ZM 354.00 485.19 L 357.50 486.87 L 354.50 486.90 C351.06,486.92 345.68,484.33 346.48,483.03 C346.78,482.55 345.91,481.28 344.54,480.21 C343.18,479.14 342.38,477.96 342.75,477.58 C343.13,477.20 342.67,477.19 341.72,477.55 C340.64,477.97 339.95,477.71 339.86,476.86 C339.32,471.76 339.23,469.00 339.60,469.00 C339.84,469.00 341.26,471.54 342.77,474.65 C344.27,477.76 346.40,480.80 347.50,481.40 C348.60,482.01 349.73,482.73 350.00,483.00 C350.27,483.28 352.08,484.26 354.00,485.19 ZM 424.15 491.00 C419.71,498.35 416.99,500.35 419.46,494.45 C420.32,492.38 420.81,490.48 420.55,490.21 C420.28,489.95 420.95,488.61 422.03,487.23 C423.11,485.86 424.00,484.16 424.00,483.45 C424.00,482.01 427.22,482.16 427.71,483.63 C427.89,484.16 426.29,487.47 424.15,491.00 ZM 433.27 414.18 C434.63,418.26 434.64,418.92 433.36,419.41 C432.56,419.72 432.14,419.58 432.44,419.09 C432.74,418.61 432.35,417.96 431.56,417.66 C430.77,417.36 429.61,416.13 428.97,414.94 C428.17,413.45 428.15,412.97 428.90,413.44 C429.58,413.86 430.00,413.24 430.00,411.84 C430.00,408.81 426.94,400.92 426.00,401.50 C425.59,401.76 425.25,400.85 425.25,399.48 C425.25,398.12 425.37,397.00 425.52,397.00 C425.67,397.00 426.97,399.25 428.40,402.00 C429.84,404.75 430.73,407.00 430.39,407.00 C430.04,407.00 430.20,407.56 430.74,408.25 C431.28,408.94 432.42,411.60 433.27,414.18 ZM 282.23 502.83 C282.88,503.48 283.18,504.00 282.91,504.00 C282.64,504.00 280.41,501.92 277.96,499.38 C275.23,496.55 273.98,494.58 274.72,494.30 C275.63,493.97 275.50,493.15 274.24,491.18 C272.58,488.57 272.59,488.54 274.45,490.00 C275.50,490.83 278.06,493.30 280.14,495.50 C283.28,498.81 283.68,499.69 282.50,500.58 C281.41,501.41 281.35,501.95 282.23,502.83 ZM 745.31 397.55 C744.51,398.35 743.20,399.00 742.40,399.00 C741.14,399.00 741.14,398.62 742.44,396.12 C743.94,393.21 749.44,388.00 750.99,388.00 C751.46,388.00 752.66,387.74 753.67,387.42 C755.34,386.89 755.34,386.97 753.56,388.42 C752.49,389.29 752.01,390.00 752.50,390.00 C753.66,390.00 749.78,392.93 748.56,392.97 C748.04,392.99 748.49,392.30 749.56,391.43 C751.45,389.91 751.45,389.90 749.58,390.82 C748.52,391.35 747.54,392.50 747.41,393.39 C747.28,394.28 747.58,394.76 748.08,394.45 C748.57,394.15 748.70,394.61 748.36,395.49 C748.03,396.37 747.53,396.86 747.26,396.59 C746.98,396.32 746.11,396.75 745.31,397.55 ZM 393.36 407.50 C393.68,408.33 393.49,409.00 392.94,409.00 C392.39,409.00 391.68,408.33 391.36,407.51 C391.05,406.68 390.39,406.26 389.91,406.56 C389.42,406.86 389.32,406.33 389.68,405.39 C390.13,404.22 389.96,403.90 389.17,404.39 C388.48,404.82 388.00,404.52 388.00,403.67 C388.00,402.87 387.30,401.95 386.45,401.62 C385.57,401.28 385.16,401.45 385.50,402.00 C385.84,402.55 385.43,402.72 384.55,402.38 C383.70,402.05 382.94,401.38 382.88,400.89 C382.81,400.40 382.67,399.44 382.58,398.75 C382.49,398.06 381.83,397.62 381.13,397.77 C380.43,397.93 380.12,397.62 380.45,397.09 C380.77,396.56 380.25,395.66 379.27,395.09 C378.03,394.37 377.92,394.05 378.91,394.03 C380.45,394.00 387.05,398.65 388.27,400.65 C388.70,401.34 389.69,402.54 390.47,403.33 C391.26,404.12 391.63,405.04 391.29,405.38 C390.95,405.72 391.14,406.00 391.73,406.00 C392.31,406.00 393.05,406.67 393.36,407.50 ZM 313.63 425.86 C311.89,425.71 309.92,425.93 309.24,426.35 C308.52,426.80 308.00,426.62 308.00,425.93 C308.00,425.10 306.69,424.91 303.75,425.30 C300.19,425.78 299.83,425.68 301.50,424.70 C303.70,423.42 328.97,422.32 327.75,423.56 C327.34,423.98 325.01,424.25 322.57,424.16 C320.12,424.06 317.83,424.47 317.46,425.06 C317.10,425.65 315.37,426.01 313.63,425.86 ZM 320.50 523.32 C322.70,524.19 323.83,524.90 323.00,524.91 C322.17,524.92 319.02,524.00 316.00,522.86 C312.98,521.72 309.63,520.81 308.57,520.84 C307.51,520.88 305.71,519.91 304.57,518.70 C303.43,517.49 301.37,515.74 300.00,514.82 C297.62,513.22 297.61,513.17 299.75,513.69 C300.99,513.99 302.00,514.60 302.00,515.05 C302.00,515.50 303.01,516.17 304.25,516.55 C305.49,516.93 308.75,518.25 311.50,519.49 C314.25,520.73 318.30,522.45 320.50,523.32 ZM 863.89 472.10 C862.19,473.69 860.30,475.00 859.70,475.00 C859.11,475.00 859.45,474.39 860.46,473.65 C861.62,472.80 862.01,471.82 861.50,471.00 C860.96,470.13 861.08,469.93 861.85,470.40 C862.57,470.85 863.00,470.39 863.00,469.17 C863.00,468.09 862.34,466.96 861.53,466.65 C859.74,465.96 856.72,468.74 857.65,470.24 C858.05,470.89 857.84,471.02 857.11,470.57 C856.45,470.16 855.14,470.40 854.21,471.10 C853.27,471.80 854.08,470.72 856.00,468.70 C859.35,465.19 859.68,465.07 863.25,466.06 C865.31,466.63 867.00,467.57 867.00,468.15 C867.00,468.72 865.60,470.50 863.89,472.10 ZM 937.48 469.18 C937.20,469.93 936.14,471.06 935.14,471.68 C933.52,472.69 933.37,472.53 933.80,470.26 C934.11,468.64 933.91,467.94 933.25,468.35 C932.68,468.70 931.94,468.28 931.61,467.42 C931.12,466.15 930.50,466.44 928.41,468.92 C926.99,470.61 925.46,472.00 925.03,472.00 C924.59,472.00 925.71,470.38 927.53,468.40 C930.39,465.28 931.23,464.89 933.90,465.48 C937.34,466.23 938.25,467.18 937.48,469.18 ZM 413.20 392.80 C413.86,393.46 414.15,394.00 413.85,394.00 C412.47,394.00 409.88,390.00 410.56,388.91 C410.98,388.22 410.89,387.95 410.34,388.29 C409.81,388.61 405.82,385.42 401.47,381.19 C397.12,376.96 394.44,374.15 395.53,374.94 C396.61,375.74 399.35,378.13 401.61,380.26 C405.49,383.93 405.81,384.05 407.44,382.42 C408.71,381.15 409.11,381.07 408.96,382.10 C408.59,384.74 409.00,387.12 409.75,386.66 C410.16,386.41 411.36,387.36 412.42,388.77 C413.48,390.18 413.81,391.00 413.17,390.61 C411.64,389.66 411.66,391.26 413.20,392.80 ZM 748.65 404.52 C748.92,405.22 748.59,406.14 747.91,406.55 C746.99,407.13 746.87,406.48 747.44,403.91 C747.85,402.03 748.34,399.45 748.52,398.16 C748.95,395.09 749.13,394.95 753.65,394.42 L 757.50 393.97 L 754.90 395.73 C751.67,397.93 748.60,401.00 749.63,401.00 C750.05,401.00 749.90,401.50 749.28,402.12 C748.66,402.74 748.38,403.82 748.65,404.52 ZM 254.24 454.51 C252.78,462.14 250.90,454.01 251.14,441.11 L 251.28 433.50 L 252.17 441.50 C252.66,445.90 253.13,450.06 253.20,450.75 C253.27,451.44 253.65,452.00 254.03,452.00 C254.41,452.00 254.51,453.13 254.24,454.51 ZM 426.69 420.50 C427.01,422.42 427.09,424.00 426.88,424.00 C426.67,424.00 425.27,420.29 423.77,415.76 L 421.04 407.52 L 424.08 410.76 C425.78,412.58 426.80,414.52 426.40,415.16 C425.96,415.87 426.13,416.04 426.85,415.60 C427.48,415.20 428.00,415.36 428.00,415.94 C428.00,416.52 427.58,417.00 427.06,417.00 C426.55,417.00 426.38,418.58 426.69,420.50 ZM 490.65 480.54 C488.40,482.11 482.76,482.37 479.50,481.05 C477.91,480.41 478.43,480.12 482.00,479.66 C491.68,478.40 493.11,478.37 493.70,479.42 C494.04,480.01 493.96,480.18 493.53,479.79 C493.09,479.39 491.80,479.73 490.65,480.54 ZM 420.90 482.19 C420.24,483.42 418.38,485.80 416.76,487.46 C414.00,490.31 414.08,490.00 418.08,482.50 C420.42,478.10 422.43,474.37 422.55,474.21 C422.66,474.05 422.97,475.09 423.25,476.52 C423.62,478.48 423.39,478.98 422.32,478.57 C421.54,478.27 421.17,478.46 421.49,478.99 C421.82,479.52 421.55,480.96 420.90,482.19 ZM 505.28 506.63 C500.98,508.46 500.64,508.36 503.00,506.00 C504.10,504.90 505.00,503.52 505.00,502.94 C505.00,502.36 505.47,502.17 506.04,502.53 C506.62,502.88 508.18,502.46 509.51,501.59 C513.09,499.24 513.66,499.66 510.92,502.63 C509.59,504.07 507.05,505.87 505.28,506.63 ZM 813.47 393.05 C812.64,394.67 811.85,395.96 811.72,395.92 C809.17,395.02 809.06,394.75 810.48,392.72 C811.80,390.85 811.78,390.41 810.32,388.80 C808.76,387.08 808.83,387.05 811.84,388.09 C813.62,388.71 814.52,389.00 814.76,389.56 C814.99,390.12 814.55,390.97 813.64,392.72 ZM 746.92 479.25 C746.98,480.64 746.17,481.00 743.00,481.00 L 739.00 481.00 L 739.07 476.75 C739.11,474.40 739.44,473.17 739.82,474.00 C742.22,479.29 745.23,481.49 746.34,478.75 C746.64,478.00 746.87,478.20 746.92,479.25 ZM 260.72 434.04 C261.02,435.17 260.73,436.00 260.04,436.00 C258.89,436.00 259.30,427.56 260.70,422.59 C261.17,420.90 261.34,420.86 262.13,422.28 C262.70,423.30 262.52,425.37 261.62,427.98 C260.84,430.23 260.44,432.96 260.72,434.04 ZM 285.01 448.00 C285.34,451.02 285.32,455.08 284.97,457.00 L 284.33 460.50 L 283.56 455.83 C283.14,453.26 283.16,449.21 283.61,446.83 L 284.41 442.50 ZM 601.02 444.66 C601.34,446.95 601.34,451.00 601.02,453.66 L 600.42 458.50 L 599.67 453.91 C599.26,451.38 599.26,447.33 599.67,444.91 L 600.42 440.50 ZM 770.19 421.25 C769.92,422.65 770.56,423.00 773.43,423.00 C776.66,423.00 778.72,421.14 775.75,420.90 C775.06,420.85 775.62,420.42 777.00,419.96 C779.00,419.30 778.59,419.17 775.01,419.31 C771.62,419.45 770.44,419.93 770.19,421.25 ZM 707.24 478.84 C703.26,480.78 699.00,481.97 699.00,481.15 C699.00,480.11 704.61,476.95 705.27,477.61 C705.58,477.91 706.77,477.66 707.91,477.05 C709.06,476.43 710.00,476.28 709.99,476.71 C709.99,477.15 708.75,478.10 707.24,478.84 ZM 609.00 449.00 C609.00,451.20 608.60,453.00 608.11,453.00 C606.90,453.00 605.86,448.54 606.61,446.58 C607.72,443.67 609.00,444.96 609.00,449.00 ZM 331.68 419.56 C329.81,427.71 328.84,423.54 330.62,415.05 C330.98,413.37 331.38,413.00 331.92,413.86 C332.34,414.56 332.24,417.12 331.68,419.56 ZM 259.08 477.15 C259.68,478.26 259.96,479.37 259.72,479.62 C259.20,480.13 255.00,470.68 255.00,468.99 C255.00,468.31 255.59,468.45 256.50,469.36 C257.33,470.18 258.00,471.82 258.00,472.99 C258.00,474.17 258.49,476.04 259.08,477.15 ZM 264.17 467.40 C264.35,468.44 263.99,469.47 263.37,469.69 C262.09,470.14 261.00,467.85 261.00,464.70 C261.00,462.84 261.18,462.76 262.42,464.04 C263.20,464.84 263.99,466.35 264.17,467.40 ZM 923.57 479.88 C922.83,481.08 919.42,481.90 918.36,481.13 C916.70,479.92 916.85,477.73 918.54,478.38 C919.43,478.72 921.05,479.00 922.14,479.00 C923.23,479.00 923.87,479.40 923.57,479.88 ZM 292.03 508.05 C292.60,509.12 292.94,509.98 292.79,509.96 C291.65,509.78 282.82,501.00 283.78,501.00 C284.45,501.00 285.00,501.35 285.00,501.78 C285.00,502.22 286.35,503.36 287.99,504.34 C289.64,505.31 291.45,506.98 292.03,508.05 ZM 392.00 521.90 C392.00,522.40 390.54,523.29 388.75,523.89 L 385.50 524.97 L 387.86 522.99 C390.39,520.86 392.00,520.44 392.00,521.90 ZM 265.56 471.30 C266.58,473.96 265.61,475.44 264.06,473.57 C263.04,472.34 262.98,471.62 263.81,470.79 C264.64,469.96 265.10,470.09 265.56,471.30 ZM 825.50 477.00 C829.30,479.51 829.78,479.51 827.50,477.00 C826.50,475.90 824.97,475.00 824.10,475.01 C823.10,475.01 823.63,475.76 825.50,477.00 ZM 664.98 438.69 C664.99,439.90 664.55,441.16 664.00,441.50 C662.73,442.29 662.73,439.97 664.00,438.00 C664.79,436.78 664.97,436.91 664.98,438.69 ZM 398.00 508.60 C398.00,509.47 401.65,507.13 403.08,505.34 C404.09,504.09 403.56,504.24 401.25,505.86 C399.46,507.11 398.00,508.35 398.00,508.60 ZM 392.00 519.10 C392.00,519.57 393.13,519.44 394.50,518.82 C395.88,518.19 396.87,517.54 396.71,517.38 C396.10,516.77 392.00,518.26 392.00,519.10 ZM 337.43 403.88 C337.74,404.38 337.32,405.05 336.49,405.36 C335.67,405.68 335.00,405.53 335.00,405.03 C335.00,403.67 336.78,402.83 337.43,403.88 ZM 346.00 488.11 C346.00,489.39 345.42,489.21 343.98,487.48 C342.92,486.20 342.99,486.06 344.36,486.58 C345.26,486.93 346.00,487.62 346.00,488.11 ZM 391.00 468.00 C391.00,468.55 391.45,469.00 392.00,469.00 C392.55,469.00 393.00,468.55 393.00,468.00 C393.00,467.45 392.55,467.00 392.00,467.00 C391.45,467.00 391.00,467.45 391.00,468.00 ZM 348.00 484.00 C349.92,485.24 350.27,485.24 349.50,484.00 C349.16,483.45 348.35,483.01 347.69,483.02 C346.98,483.02 347.10,483.42 348.00,484.00 Z" fill="rgb(59,39,27)"/>
<path d="M 395.00 520.11 C395.00,519.62 396.08,518.95 397.39,518.62 C397.74,518.53 398.30,518.22 399.02,517.74 C388.60,525.35 376.90,530.76 367.11,532.12 C362.95,532.70 358.78,533.58 357.84,534.08 C355.37,535.41 334.70,535.04 326.50,533.53 C324.95,533.24 323.45,532.93 321.98,532.60 C322.00,532.49 322.00,532.35 322.00,532.18 C322.00,531.73 319.41,530.56 316.25,529.57 C313.09,528.58 309.69,526.92 308.71,525.89 C307.73,524.85 306.32,524.00 305.58,524.00 C304.85,524.00 303.67,523.30 302.96,522.45 C302.26,521.60 301.02,521.16 300.21,521.47 C299.40,521.78 296.77,520.88 294.37,519.48 C291.97,518.07 290.00,517.08 290.00,517.29 C290.00,518.10 300.71,524.93 304.50,526.54 C306.39,527.35 308.55,528.31 309.71,528.86 C303.15,526.29 297.03,522.85 290.50,518.18 C282.26,512.29 279.99,510.13 274.10,502.62 C271.68,499.53 269.32,497.00 268.85,497.00 C268.38,497.00 268.00,496.33 268.00,495.50 C268.00,494.67 267.60,494.00 267.12,494.00 C266.63,494.00 265.01,491.41 263.51,488.25 C262.02,485.09 260.45,482.27 260.02,482.00 C259.32,481.54 253.81,467.15 253.90,466.00 C253.92,465.73 253.44,463.70 252.82,461.50 C252.37,459.88 252.04,457.37 251.83,454.38 C252.47,458.11 253.42,458.80 254.24,454.51 C254.51,453.13 254.41,452.00 254.03,452.00 C253.65,452.00 253.27,451.44 253.20,450.75 C253.13,450.06 252.66,445.90 252.17,441.50 L 251.76 437.83 C252.03,432.45 252.57,427.50 253.35,424.50 C254.36,420.65 255.30,416.83 255.42,416.00 C256.19,411.14 257.30,408.00 258.25,408.00 C258.84,408.00 259.05,407.72 258.71,407.38 C258.25,406.92 259.40,404.07 261.39,400.35 C260.97,401.20 260.65,401.94 260.48,402.50 C259.97,404.16 260.09,404.11 261.22,402.24 C262.33,400.40 262.83,400.21 263.94,401.24 C265.06,402.28 265.17,402.16 264.60,400.56 C263.92,398.63 263.94,398.63 266.13,400.56 C268.15,402.34 268.28,402.35 267.68,400.70 C267.29,399.62 267.42,399.14 268.02,399.51 C268.56,399.85 268.73,401.22 268.40,402.56 C267.45,406.35 269.05,405.47 272.03,400.78 C266.28,410.78 262.27,422.93 260.81,434.47 C260.79,434.33 260.76,434.19 260.72,434.04 C260.44,432.96 260.84,430.23 261.62,427.98 C262.52,425.37 262.70,423.30 262.13,422.28 C261.34,420.86 261.17,420.90 260.70,422.59 C259.30,427.56 258.89,436.00 260.04,436.00 C260.32,436.00 260.54,435.86 260.67,435.63 C259.99,441.68 260.03,447.54 260.91,452.79 C262.63,463.06 266.60,475.63 269.58,480.23 C270.91,482.28 272.00,484.21 272.00,484.52 C272.00,486.56 285.50,502.00 292.62,508.11 C300.28,514.67 315.67,521.98 327.00,524.43 C334.98,526.16 355.27,526.41 361.74,524.85 C369.03,523.10 381.10,518.00 388.30,513.72 C380.92,518.56 379.12,519.99 382.84,518.05 C384.13,517.38 386.21,517.09 387.45,517.40 C389.04,517.80 390.29,517.30 391.61,515.75 C393.47,513.57 393.47,513.56 391.59,515.02 C389.89,516.33 389.73,516.33 390.17,515.00 C390.44,514.17 391.66,513.35 392.89,513.17 C394.12,512.99 395.37,512.21 395.67,511.43 C395.96,510.65 396.65,510.28 397.19,510.62 C398.60,511.49 404.95,505.03 404.32,503.38 C404.02,502.62 404.27,502.00 404.86,502.00 C405.45,502.00 406.46,500.99 407.11,499.75 C407.78,498.49 405.88,499.77 402.77,502.69 C400.83,504.51 397.68,507.06 394.53,509.40 C401.59,503.86 409.29,495.94 413.66,489.50 C418.55,482.29 424.78,469.92 425.39,466.19 C425.64,464.71 425.91,463.50 426.00,463.50 C426.09,463.50 426.36,462.38 426.60,461.00 C426.83,459.62 427.30,457.15 427.63,455.50 C428.86,449.45 428.27,433.39 426.53,425.50 C425.56,421.10 423.51,414.72 421.98,411.32 C420.45,407.92 419.45,404.89 419.76,404.57 C420.08,404.26 419.84,404.00 419.23,404.00 C418.63,404.00 417.82,402.99 417.43,401.75 C416.09,397.51 405.94,385.16 398.83,379.13 C382.47,365.25 363.11,358.60 341.50,359.42 C331.73,359.79 325.10,361.10 316.00,364.46 C313.52,365.37 310.04,366.57 308.25,367.11 C306.46,367.65 305.00,368.52 305.00,369.05 C305.00,369.57 304.13,370.00 303.07,370.00 C302.01,370.00 300.47,370.67 299.64,371.50 C298.82,372.33 297.66,373.00 297.07,373.00 C296.48,373.00 296.00,373.45 296.00,374.00 C296.00,374.55 295.52,375.00 294.93,375.00 C294.34,375.00 293.28,375.56 292.57,376.25 C291.86,376.94 289.64,378.85 287.64,380.49 C285.64,382.14 284.00,383.88 284.00,384.35 C284.00,384.82 282.09,387.34 279.75,389.95 C278.42,391.43 277.14,393.04 275.91,394.74 C277.10,393.04 278.26,391.50 279.09,390.55 C282.13,387.09 281.93,384.85 278.83,387.65 C277.82,388.56 277.00,389.00 277.00,388.62 C277.00,388.24 276.03,388.45 274.85,389.08 C273.02,390.06 272.79,389.99 273.32,388.62 C273.66,387.73 273.49,387.00 272.93,387.00 C272.29,387.00 272.31,386.20 273.01,384.75 C273.71,383.31 272.90,383.82 270.80,386.15 C269.31,387.80 267.42,390.38 265.65,393.07 C266.20,392.21 266.77,391.35 267.34,390.50 C271.79,383.93 283.87,371.01 285.56,371.00 C286.15,371.00 287.92,369.65 289.50,368.00 C291.08,366.35 293.17,365.00 294.14,365.00 C295.10,365.00 297.06,363.92 298.48,362.61 C299.89,361.30 302.50,359.67 304.28,358.99 C306.05,358.32 309.30,356.98 311.50,356.01 C319.81,352.38 329.20,350.74 342.50,350.62 C357.27,350.48 362.93,351.13 372.66,354.08 C380.93,356.59 393.00,361.97 393.00,363.15 C393.00,363.62 393.56,364.00 394.25,364.00 C394.94,364.00 396.81,365.13 398.41,366.50 C400.00,367.88 401.62,369.00 402.00,369.00 C402.38,369.00 405.41,371.66 408.75,374.91 C409.77,375.91 410.78,376.94 411.75,377.97 C408.22,374.42 404.32,371.00 403.35,371.00 C401.83,371.00 401.83,371.15 403.27,372.75 C404.14,373.71 404.86,374.94 404.85,375.48 C404.85,376.01 405.45,376.61 406.17,376.80 C407.08,377.04 407.02,376.79 406.00,376.00 C404.67,374.98 404.67,374.89 406.00,375.26 C406.83,375.49 407.51,376.38 407.51,377.25 C407.53,379.40 411.03,383.10 412.30,382.31 C412.93,381.93 413.10,382.30 412.74,383.24 C412.32,384.33 413.11,385.30 415.32,386.38 C417.07,387.25 418.95,387.93 419.50,387.90 C419.70,387.89 419.81,387.85 419.84,387.79 C422.56,391.56 424.97,395.49 427.08,399.54 C426.25,398.03 425.62,397.00 425.52,397.00 C425.37,397.00 425.25,398.12 425.25,399.48 C425.25,400.85 425.59,401.76 426.00,401.50 C426.94,400.92 430.00,408.81 430.00,411.84 C430.00,413.24 429.58,413.86 428.90,413.44 C428.15,412.97 428.17,413.45 428.97,414.94 C429.61,416.13 430.77,417.36 431.56,417.66 C432.35,417.96 432.74,418.61 432.44,419.09 C432.14,419.58 432.56,419.72 433.36,419.41 C434.16,419.11 434.46,418.73 434.24,417.50 C435.65,422.49 436.66,427.58 437.23,432.70 C437.19,432.64 437.15,432.59 437.11,432.57 C436.03,431.90 435.31,434.90 435.07,441.00 C434.98,443.48 434.85,446.17 434.79,447.00 C434.46,451.62 435.12,459.00 435.86,459.00 C436.08,459.00 436.35,458.47 436.61,457.62 C435.26,465.87 432.74,473.99 429.03,481.76 C426.67,486.70 424.73,490.31 422.41,493.74 C422.95,492.93 423.54,492.02 424.15,491.00 C426.29,487.47 427.89,484.16 427.71,483.63 C427.22,482.16 424.00,482.01 424.00,483.45 C424.00,484.16 423.11,485.86 422.03,487.23 C420.95,488.61 420.28,489.95 420.55,490.21 C420.81,490.48 420.32,492.38 419.46,494.45 C417.53,499.07 418.77,498.85 421.54,495.00 C420.00,497.17 418.27,499.32 416.14,501.74 C417.63,498.95 415.61,500.31 411.46,504.91 C409.42,507.18 407.13,508.64 405.41,508.78 C402.16,509.05 398.72,511.83 399.41,513.64 C399.71,514.42 399.35,514.69 398.45,514.34 C397.65,514.04 397.00,514.31 397.00,514.95 C397.00,515.59 396.55,515.84 396.00,515.50 C395.45,515.16 395.00,515.36 395.00,515.94 C395.00,516.52 394.38,517.00 393.62,517.00 C391.52,517.00 389.58,519.67 391.21,520.32 C393.30,521.16 395.00,521.07 395.00,520.11 ZM 505.28 506.63 C506.32,506.19 507.62,505.39 508.79,504.51 C508.39,504.86 507.99,505.19 507.58,505.50 C502.14,509.66 496.93,510.69 485.41,509.87 C473.84,509.06 469.11,507.44 467.06,503.61 C465.70,501.07 465.79,500.75 468.68,497.86 C471.37,495.17 472.02,494.94 473.96,495.98 C481.00,499.75 496.93,498.45 500.73,493.81 C503.50,490.41 506.43,473.97 504.25,474.02 C503.84,474.03 501.52,475.38 499.09,477.02 C497.30,478.24 495.60,479.21 493.91,479.95 C493.92,479.86 493.86,479.68 493.70,479.42 C493.11,478.37 491.68,478.40 482.00,479.66 C478.43,480.12 477.91,480.41 479.50,481.05 C479.55,481.07 479.60,481.09 479.65,481.11 C477.71,480.74 475.60,480.20 473.28,479.51 C466.71,477.53 459.78,470.94 456.31,463.36 C454.09,458.51 453.86,456.94 454.28,449.20 C454.90,437.72 455.96,433.43 459.15,429.56 C459.63,428.98 460.95,427.26 462.08,425.75 C463.22,424.24 464.75,423.00 465.49,423.00 C466.23,423.00 466.98,422.66 467.17,422.25 C467.70,421.04 474.66,417.77 477.70,417.30 C482.46,416.55 492.42,417.02 493.44,418.04 C493.97,418.57 495.10,419.01 495.95,419.02 C496.80,419.03 498.62,419.92 500.00,421.00 C503.22,423.52 503.79,423.48 504.18,420.75 C504.47,418.73 505.14,418.47 510.76,418.20 C516.80,417.91 517.05,418.00 518.10,420.70 C519.53,424.37 518.51,485.86 516.93,491.42 C516.07,494.45 514.54,497.51 512.63,500.17 C512.51,499.85 511.45,500.31 509.51,501.59 C508.18,502.46 506.62,502.88 506.04,502.53 C505.47,502.17 505.00,502.36 505.00,502.94 C505.00,503.52 504.10,504.90 503.00,506.00 C500.64,508.36 500.98,508.46 505.28,506.63 ZM 572.23 479.68 C570.31,480.48 565.09,481.33 560.62,481.58 C549.14,482.20 543.35,479.97 535.75,472.01 C532.59,468.70 529.94,465.54 529.88,464.99 C529.69,463.54 529.45,462.78 528.27,459.95 C526.90,456.68 526.86,441.89 528.22,440.25 C528.78,439.56 528.98,439.00 528.65,439.00 C527.90,439.00 532.06,431.13 534.96,427.06 C536.16,425.38 537.76,424.00 538.52,424.00 C539.28,424.00 540.26,423.39 540.70,422.64 C541.14,421.88 543.08,420.42 545.00,419.39 C547.81,417.87 550.56,417.51 559.00,417.54 C571.08,417.59 575.15,418.99 581.00,425.12 C585.30,429.63 586.95,432.25 589.11,437.96 C591.87,445.30 591.41,456.41 588.03,463.57 C585.30,469.35 577.21,477.59 572.23,479.68 ZM 707.24 478.84 C708.75,478.10 709.99,477.15 709.99,476.71 C710.00,476.28 709.06,476.43 707.91,477.05 C706.77,477.66 705.58,477.91 705.27,477.61 C704.61,476.95 699.00,480.11 699.00,481.15 C699.00,481.26 699.08,481.33 699.22,481.37 C693.52,482.22 686.92,481.79 682.36,479.98 C675.75,477.36 669.06,471.45 666.02,465.53 C663.02,459.71 662.75,458.37 662.61,448.50 C662.56,445.00 662.64,442.77 663.05,440.77 C663.04,441.51 663.36,441.90 664.00,441.50 C664.55,441.16 664.99,439.90 664.98,438.69 C664.97,436.91 664.79,436.78 664.00,438.00 C663.85,438.24 663.71,438.48 663.60,438.72 C664.00,437.51 664.55,436.25 665.30,434.70 C668.21,428.69 673.89,422.47 677.46,421.38 C678.58,421.04 680.28,420.08 681.22,419.25 C683.28,417.45 700.51,416.40 701.51,418.02 C701.86,418.58 702.56,418.77 703.08,418.45 C703.59,418.13 704.72,418.58 705.58,419.44 C706.44,420.30 707.92,421.00 708.86,421.00 C710.30,421.00 714.33,424.85 719.09,430.77 C722.35,434.81 723.96,440.83 723.97,449.00 C723.99,457.63 722.63,465.00 721.02,465.00 C720.53,465.00 719.82,466.01 719.44,467.25 C718.49,470.30 711.84,476.53 706.71,479.17 C705.70,479.69 704.54,480.13 703.29,480.50 C704.52,480.06 705.90,479.49 707.24,478.84 ZM 890.37 459.80 C889.96,459.13 889.49,457.33 889.32,455.80 L 889.29 455.45 C889.94,458.47 891.54,463.00 892.12,463.00 C892.60,463.00 893.00,463.60 893.00,464.33 C893.00,465.83 898.42,471.00 899.99,471.00 C900.55,471.00 901.00,471.48 901.00,472.06 C901.00,472.64 901.41,472.86 901.92,472.55 C902.42,472.24 903.99,472.43 905.41,472.97 C909.20,474.41 919.42,474.60 921.07,473.25 C921.86,472.62 924.42,470.44 926.77,468.41 C929.45,466.10 930.64,465.26 932.08,465.25 C930.64,465.29 929.62,466.11 927.53,468.40 C925.71,470.38 924.59,472.00 925.03,472.00 C925.46,472.00 926.99,470.61 928.41,468.92 C930.50,466.44 931.12,466.15 931.61,467.42 C931.94,468.28 932.68,468.70 933.25,468.35 C933.91,467.94 934.11,468.64 933.80,470.26 C933.37,472.53 933.52,472.69 935.14,471.68 C935.68,471.34 936.23,470.86 936.68,470.37 C934.05,473.77 927.49,478.98 923.48,480.35 C923.25,480.43 923.03,480.50 922.80,480.57 C923.15,480.37 923.42,480.13 923.57,479.88 C923.87,479.40 923.23,479.00 922.14,479.00 C921.05,479.00 919.43,478.72 918.54,478.38 C916.85,477.73 916.70,479.92 918.36,481.13 C918.60,481.30 918.95,481.39 919.37,481.42 C908.78,483.38 896.14,480.19 889.40,473.46 C884.46,468.51 882.16,465.18 881.18,459.87 C881.23,460.01 881.29,460.14 881.34,460.27 C882.20,462.32 883.16,464.00 883.48,464.00 C883.81,464.00 883.51,462.99 882.82,461.75 C881.25,458.92 881.04,440.24 882.57,439.22 C883.16,438.82 883.94,437.83 884.31,437.00 C884.67,436.17 885.76,434.38 886.72,433.00 C888.43,430.57 888.42,430.54 886.57,432.00 C884.77,433.42 884.74,433.38 885.94,431.13 C886.75,429.60 886.80,429.00 886.09,429.45 C885.47,429.83 883.99,432.02 882.80,434.32 C881.95,435.95 881.28,438.38 880.81,441.12 C881.10,438.03 881.67,436.19 882.79,433.85 C885.65,427.85 894.14,420.33 900.02,418.59 C905.56,416.94 916.08,416.70 921.50,418.09 C923.77,418.68 925.93,419.64 927.94,420.92 C927.85,420.92 927.77,420.95 927.70,421.02 C927.38,421.31 928.44,423.05 930.05,424.89 C931.66,426.73 932.68,428.70 932.33,429.27 C931.98,429.84 932.15,430.03 932.71,429.68 C934.44,428.61 937.27,432.77 938.20,437.75 C938.69,440.36 939.33,443.62 939.61,445.00 C939.97,446.68 939.47,448.21 938.10,449.68 C936.00,451.92 936.55,452.75 940.25,452.92 C941.56,452.98 941.93,452.27 941.99,448.83 L 942.23 453.00 L 928.86 453.12 C921.51,453.19 909.54,453.14 902.25,453.02 C895.39,452.91 889.70,453.07 889.06,453.39 L 889.02 453.00 L 904.50 452.82 L 898.24 451.34 C894.79,450.52 892.23,449.44 892.54,448.93 C893.71,447.05 891.43,448.11 889.15,450.52 C887.85,451.88 886.39,453.00 885.90,453.00 C884.20,453.00 885.00,456.29 887.25,458.54 C889.69,460.98 891.57,461.74 890.37,459.80 ZM 343.42 410.72 C343.45,410.67 343.48,410.62 343.51,410.58 C342.90,411.62 342.26,412.84 341.69,414.00 C339.61,418.26 339.50,419.81 339.50,443.50 L 339.50 468.50 L 340.24 469.84 C339.91,469.31 339.69,469.00 339.60,469.00 C339.23,469.00 339.32,471.76 339.86,476.86 C339.95,477.71 340.64,477.97 341.72,477.55 C342.67,477.19 343.13,477.20 342.75,477.58 C342.38,477.96 343.18,479.14 344.54,480.21 C345.91,481.28 346.78,482.55 346.48,483.03 C345.68,484.33 351.06,486.92 354.50,486.90 L 357.50 486.87 L 354.00 485.19 C352.08,484.26 350.27,483.28 350.00,483.00 C349.73,482.73 348.60,482.01 347.50,481.40 C346.40,480.80 344.27,477.76 342.77,474.65 C342.39,473.87 342.02,473.13 341.67,472.45 L 342.50 473.97 C345.73,479.86 351.52,484.64 357.12,486.05 C366.71,488.47 377.96,484.08 383.64,475.72 L 385.33 473.23 L 384.01 476.50 L 386.14 474.00 C387.31,472.62 388.65,471.61 389.13,471.75 C389.61,471.89 390.00,471.55 390.00,471.00 C390.00,470.45 390.34,470.00 390.75,470.00 C391.16,470.00 391.48,472.20 391.45,474.89 C391.40,479.02 392.21,480.24 393.41,478.66 C389.67,485.20 382.59,491.62 376.35,493.97 C378.19,493.19 379.94,492.20 380.60,491.54 C381.96,490.19 381.80,490.06 379.08,490.38 C377.29,490.59 376.29,490.33 376.65,489.76 C377.01,489.17 376.40,489.06 375.10,489.47 C371.64,490.57 372.94,488.13 379.00,482.14 C382.02,479.15 382.81,478.11 380.74,479.83 C375.14,484.49 371.83,485.90 364.30,486.87 C360.56,487.35 358.99,487.80 360.81,487.87 C362.63,487.94 363.87,488.40 363.57,488.89 C363.27,489.37 364.03,490.04 365.26,490.37 C367.47,490.97 367.46,491.01 364.50,493.45 L 361.60 495.85 C358.01,495.57 354.42,494.82 351.06,493.64 C352.60,494.13 352.98,493.83 353.60,492.85 C354.05,492.11 353.87,491.96 353.09,492.45 C352.39,492.87 351.36,492.53 350.68,491.64 C350.03,490.79 348.17,489.85 346.55,489.57 C342.92,488.94 337.82,484.03 337.50,480.85 C337.36,479.56 337.20,478.11 337.13,477.64 C337.06,477.17 336.35,477.04 335.55,477.34 C334.53,477.73 334.29,477.42 334.72,476.29 C335.11,475.27 334.94,474.92 334.25,475.34 C332.55,476.40 331.74,470.66 332.96,466.15 C333.83,462.91 333.73,461.35 332.41,458.06 C330.86,454.19 330.87,452.91 332.50,443.50 C332.60,442.95 332.10,440.48 331.39,438.00 C330.26,434.00 330.14,435.68 330.31,453.00 C330.40,461.94 330.46,466.81 330.77,469.97 C329.55,464.11 329.03,456.77 329.02,447.31 L 329.00 432.13 L 318.25 431.81 C306.90,431.48 304.46,432.16 297.94,437.50 C295.62,439.40 291.98,447.70 292.00,451.07 C292.01,454.52 295.12,462.83 297.25,465.10 C302.30,470.46 310.99,472.13 314.14,468.34 C314.85,467.47 315.23,464.15 315.09,459.89 C314.83,451.80 315.81,450.00 320.51,450.00 L 323.77 450.00 L 323.93 461.28 C324.08,471.91 323.95,472.68 321.79,474.53 C316.24,479.29 311.92,480.02 301.80,477.88 C297.41,476.96 295.60,475.85 291.25,471.43 C288.36,468.49 285.94,465.62 285.88,465.04 C285.69,463.54 285.44,462.75 284.41,460.50 C284.39,460.46 284.37,460.41 284.36,460.37 L 284.97 457.00 C285.32,455.08 285.34,451.02 285.01,448.00 L 284.43 442.64 C284.64,441.56 284.89,440.65 285.18,440.00 C287.32,435.09 292.70,429.28 297.99,426.17 C302.13,423.73 303.53,423.50 316.11,423.15 L 318.51 423.09 C311.45,423.30 302.75,423.97 301.50,424.70 C299.83,425.68 300.19,425.78 303.75,425.30 C306.69,424.91 308.00,425.10 308.00,425.93 C308.00,426.62 308.52,426.80 309.24,426.35 C309.92,425.93 311.89,425.71 313.63,425.86 C315.37,426.01 317.10,425.65 317.46,425.06 C317.83,424.47 320.12,424.06 322.57,424.16 C325.01,424.25 327.34,423.98 327.75,423.56 C328.24,423.06 324.42,422.94 319.54,423.06 L 329.69 422.78 C329.79,424.89 330.58,424.36 331.68,419.56 C332.24,417.12 332.34,414.56 331.92,413.86 C331.49,413.18 331.15,413.27 330.85,414.17 C331.63,410.93 333.05,407.80 335.00,404.92 C335.00,404.96 335.00,404.99 335.00,405.03 C335.00,405.53 335.67,405.68 336.49,405.36 C337.32,405.05 337.74,404.38 337.43,403.88 C337.11,403.37 336.52,403.31 336.00,403.54 C336.39,403.02 336.80,402.52 337.23,402.02 C337.20,402.51 337.59,403.00 338.31,403.79 C339.43,405.03 339.89,406.84 339.64,409.09 C339.31,412.07 339.72,415.00 340.46,415.00 C340.60,415.00 341.93,413.07 343.42,410.72 ZM 703.00 474.81 C703.00,474.42 705.07,472.17 707.60,469.81 C710.12,467.44 712.64,464.60 713.19,463.50 C713.73,462.40 712.35,463.58 710.11,466.13 C707.79,468.77 705.07,470.79 702.14,472.13 C707.62,469.39 712.82,463.33 714.50,457.70 C716.21,451.92 716.50,442.43 714.98,441.49 C714.42,441.14 714.17,440.53 714.43,440.12 C714.68,439.71 713.22,437.19 711.19,434.51 C704.69,425.94 696.42,423.29 685.38,426.24 C680.62,427.52 676.30,431.75 672.96,438.41 C670.90,442.51 671.04,456.56 673.17,460.50 C676.63,466.88 682.17,471.41 688.50,473.03 C692.02,473.93 695.25,474.08 698.16,473.50 C694.03,474.48 689.69,474.19 685.65,472.50 C682.46,471.17 682.13,471.17 682.64,472.50 C682.87,473.11 682.94,473.49 683.16,473.74 C683.58,474.24 684.57,474.25 688.50,474.66 C691.25,474.94 693.64,475.31 693.81,475.48 C694.44,476.10 703.00,475.48 703.00,474.81 ZM 615.29 431.55 C619.62,427.46 621.42,425.00 619.00,426.50 C618.46,426.84 617.05,427.30 615.89,427.52 C614.73,427.75 613.10,428.73 612.28,429.71 C611.21,431.00 611.25,430.73 612.42,428.75 C613.63,426.71 613.72,426.00 612.77,425.98 C611.89,425.97 611.96,425.67 613.00,425.00 C613.83,424.47 614.11,424.02 613.63,424.02 C613.15,424.01 613.37,423.25 614.13,422.34 C615.11,421.15 614.91,420.95 614.12,421.35 C618.96,418.35 624.79,416.94 631.66,417.10 C635.72,417.20 639.30,417.67 639.59,418.15 C639.89,418.64 640.55,418.78 641.05,418.47 C643.41,417.01 653.00,425.09 653.00,428.54 C653.00,429.88 652.02,431.13 650.35,431.89 C647.94,432.98 647.40,432.81 644.49,429.99 C634.84,420.63 618.23,424.15 611.75,436.94 C610.04,440.31 609.13,444.12 608.97,447.93 C608.76,444.75 607.62,443.94 606.61,446.58 C605.86,448.54 606.90,453.00 608.11,453.00 C608.51,453.00 608.85,451.81 608.96,450.19 C609.17,456.14 611.21,461.88 614.88,465.71 C616.05,466.92 617.00,468.27 617.00,468.71 C617.01,469.57 623.83,472.51 628.23,473.56 C633.17,474.73 640.99,472.09 645.34,467.78 L 649.31 463.85 L 652.61 465.63 C655.26,467.06 655.68,467.68 654.74,468.81 C654.10,469.58 653.11,471.12 652.54,472.23 C651.00,475.22 643.84,480.02 639.40,481.05 C633.36,482.45 625.94,482.08 621.00,480.14 C614.32,477.50 608.07,473.25 606.80,470.46 C606.18,469.11 605.33,468.00 604.91,468.00 C604.27,468.00 602.86,465.05 602.51,463.00 C602.47,462.73 601.80,461.38 601.03,460.00 C600.81,459.61 600.61,459.06 600.43,458.38 L 601.02 453.66 C601.34,451.00 601.34,446.95 601.02,444.66 L 600.43 440.58 C600.85,439.01 601.46,437.45 602.36,435.50 C602.62,434.93 602.89,434.37 603.17,433.82 C603.10,434.47 603.82,434.27 605.53,432.79 C606.92,431.58 607.84,430.02 607.57,429.33 C607.04,427.95 608.57,426.51 609.25,427.74 C609.48,428.16 609.53,427.91 609.35,427.20 C609.17,426.48 609.46,426.17 610.00,426.50 C610.53,426.83 610.81,429.10 610.62,431.55 C610.44,434.00 610.35,436.00 610.43,436.00 C610.51,436.00 612.69,434.00 615.29,431.55 ZM 745.31 397.55 C746.11,396.75 746.98,396.32 747.26,396.59 C747.53,396.86 748.03,396.37 748.36,395.49 C748.70,394.61 748.57,394.15 748.08,394.45 C747.58,394.76 747.28,394.28 747.41,393.39 C747.54,392.50 748.52,391.35 749.58,390.82 C751.45,389.90 751.45,389.91 749.56,391.43 C748.49,392.30 748.04,392.99 748.56,392.97 C749.78,392.93 753.66,390.00 752.50,390.00 C752.01,390.00 752.49,389.29 753.56,388.42 C755.34,386.97 755.34,386.89 753.67,387.42 C752.88,387.67 751.97,387.88 751.39,387.96 C756.68,385.69 763.46,385.33 770.47,387.10 L 774.83 388.19 L 773.54 391.85 C772.59,394.53 771.75,395.42 770.38,395.19 C761.31,393.69 758.02,393.83 754.73,395.86 C754.70,395.88 754.66,395.90 754.63,395.92 C754.72,395.86 754.81,395.80 754.90,395.73 L 757.50 393.97 L 753.65 394.42 C749.13,394.95 748.95,395.09 748.52,398.16 C748.34,399.45 747.85,402.03 747.44,403.91 C746.87,406.48 746.99,407.13 747.91,406.55 C748.59,406.14 748.92,405.22 748.65,404.52 C748.38,403.82 748.66,402.74 749.28,402.12 C749.90,401.50 750.05,401.00 749.63,401.00 C748.88,401.00 750.31,399.36 752.40,397.62 C749.75,400.16 748.72,403.70 748.24,410.71 L 747.74 417.91 L 755.51 418.21 L 763.28 418.50 L 763.63 421.71 L 763.97 424.92 L 755.74 425.21 L 747.50 425.50 L 747.89 481.00 L 743.00 481.00 C746.17,481.00 746.98,480.64 746.92,479.25 C746.87,478.20 746.64,478.00 746.34,478.75 C745.23,481.49 742.22,479.29 739.82,474.00 C739.44,473.17 739.11,474.40 739.07,476.75 L 739.00 481.00 L 739.00 425.00 L 734.50 425.00 C730.02,425.00 730.00,424.98 730.00,421.50 C730.00,418.03 730.04,418.00 734.38,418.00 L 738.76 418.00 L 739.19 409.25 C739.63,400.21 741.71,395.09 746.62,390.90 C746.99,390.58 747.37,390.28 747.77,390.00 C745.70,391.78 743.34,394.37 742.44,396.12 C741.14,398.62 741.14,399.00 742.40,399.00 C743.20,399.00 744.51,398.35 745.31,397.55 ZM 478.49 465.87 C485.09,469.40 492.40,468.24 498.35,462.73 C505.14,456.43 504.45,440.48 497.12,434.50 C492.84,431.01 490.60,430.07 486.50,430.06 C482.62,430.04 476.05,432.54 473.00,435.20 C470.39,437.46 467.76,446.56 468.35,451.23 C468.65,453.58 468.92,456.07 468.95,456.76 C469.03,458.70 474.06,463.51 478.49,465.87 ZM 551.63 466.44 C557.25,468.50 562.68,468.30 567.58,465.85 C573.67,462.81 576.40,456.39 575.74,446.64 C575.29,439.91 575.10,439.49 570.87,435.49 C565.84,430.74 560.36,429.29 553.95,431.01 C548.75,432.41 545.72,435.40 543.13,441.69 C540.60,447.85 540.54,449.09 542.49,455.65 C544.34,461.89 546.65,464.62 551.63,466.44 ZM 349.56 404.12 C352.23,402.19 352.93,400.43 350.50,401.36 C349.67,401.68 349.00,401.45 349.00,400.86 C349.00,400.27 348.30,400.05 347.45,400.38 C346.59,400.71 346.11,400.62 346.38,400.19 C346.65,399.76 346.48,398.78 346.01,398.01 C345.44,397.10 345.72,396.15 346.82,395.26 C347.94,394.35 347.50,394.41 345.50,395.43 C344.21,396.09 342.30,397.33 340.75,398.49 C343.38,396.21 346.41,394.25 349.77,392.72 C353.47,391.03 356.46,390.55 363.50,390.53 C371.33,390.50 373.23,390.86 378.09,393.24 C379.09,393.73 380.06,394.27 381.00,394.85 C380.08,394.34 379.32,394.02 378.91,394.03 C377.92,394.05 378.03,394.37 379.27,395.09 C380.25,395.66 380.77,396.56 380.45,397.09 C380.12,397.62 380.43,397.93 381.13,397.77 C381.83,397.62 382.49,398.06 382.58,398.75 C382.67,399.44 382.81,400.40 382.88,400.89 C382.94,401.38 383.70,402.05 384.55,402.38 C385.43,402.72 385.84,402.55 385.50,402.00 C385.16,401.45 385.57,401.28 386.45,401.62 C387.30,401.95 388.00,402.87 388.00,403.67 C388.00,404.52 388.48,404.82 389.17,404.39 C389.96,403.90 390.13,404.22 389.68,405.39 C389.32,406.33 389.42,406.86 389.91,406.56 C390.39,406.26 391.05,406.68 391.36,407.51 C391.68,408.33 392.39,409.00 392.94,409.00 C393.29,409.00 393.50,408.72 393.51,408.30 C393.78,408.84 394.03,409.40 394.25,409.95 C395.63,413.36 396.16,415.21 396.37,423.32 C395.96,423.96 394.73,427.08 393.51,430.57 L 391.14 437.35 L 390.74 433.43 C390.52,431.27 390.31,432.88 390.27,437.00 C390.23,441.38 390.49,443.47 390.89,442.02 C391.50,439.81 391.84,440.23 393.89,445.70 C396.31,452.19 396.16,456.79 393.45,459.04 C392.32,459.98 391.89,459.87 391.37,458.53 C390.86,457.18 390.55,457.11 389.88,458.17 C389.35,459.00 388.97,457.43 388.88,454.00 C388.77,450.05 388.48,451.39 387.88,458.74 C387.59,462.22 387.08,465.95 386.53,468.79 L 386.80 445.52 C387.13,416.73 386.69,413.98 380.68,407.00 C373.42,398.58 359.10,397.73 349.56,404.12 ZM 889.68 445.27 C889.94,445.69 899.90,445.92 911.82,445.77 L 933.50 445.50 L 933.25 443.00 C933.11,441.62 931.85,438.20 930.45,435.39 C928.35,431.18 926.95,429.79 922.51,427.55 C916.97,424.75 905.39,422.89 904.15,424.60 C903.79,425.10 901.92,426.35 900.00,427.39 C895.47,429.85 892.13,432.87 890.52,436.00 C889.26,438.45 888.78,443.75 889.68,445.27 ZM 867.29 433.04 C867.21,433.02 867.14,433.00 867.06,433.00 C865.72,433.00 866.19,440.27 867.67,442.47 C868.40,443.56 869.00,445.92 869.00,447.72 C869.00,450.71 868.73,451.00 865.94,451.00 C864.16,451.00 863.14,450.58 863.50,450.00 C863.84,449.45 863.65,449.00 863.08,449.00 C862.42,449.00 862.36,448.18 862.92,446.72 C863.48,445.25 863.33,443.40 862.49,441.47 L 861.19 438.50 L 862.26 446.00 L 862.25 446.00 L 855.88 446.08 C852.37,446.12 850.17,446.38 851.00,446.65 C854.45,447.79 856.90,449.36 856.42,450.12 C856.15,450.57 853.69,451.24 850.96,451.60 C846.02,452.25 844.97,452.83 847.07,453.13 C845.84,453.13 844.59,453.13 843.33,453.13 L 821.40 453.08 C822.29,452.99 823.34,452.94 824.61,452.92 C830.20,452.84 830.36,452.77 827.66,451.58 C826.10,450.89 824.42,449.69 823.94,448.91 C823.23,447.77 824.33,447.39 829.78,446.93 C836.48,446.36 836.47,446.35 827.25,446.18 C818.76,446.01 818.00,445.84 818.00,444.02 C818.01,445.95 818.74,446.00 840.12,446.00 L 862.25 446.00 L 861.63 442.92 C859.46,432.03 850.06,423.98 839.57,424.01 C835.49,424.02 827.16,428.04 823.80,431.62 C821.94,433.61 820.13,436.72 819.04,439.54 C820.12,436.50 821.79,433.18 822.94,432.26 C824.27,431.21 824.13,431.08 822.00,431.40 C820.62,431.61 819.61,432.26 819.74,432.85 C819.87,433.44 819.36,433.69 818.62,433.41 C817.87,433.12 816.99,433.59 816.66,434.44 C816.33,435.30 815.49,435.99 814.78,435.98 C813.78,435.97 813.80,435.78 814.84,435.12 C815.58,434.65 816.28,432.80 816.41,431.00 L 816.63 427.72 L 814.35 430.38 C814.16,430.60 813.97,430.84 813.79,431.08 C816.75,426.27 820.76,422.67 826.28,419.85 C829.54,418.18 832.59,417.63 839.75,417.44 C845.22,417.29 849.00,417.58 849.00,418.15 C849.00,418.68 849.41,418.86 849.92,418.55 C853.10,416.58 863.08,425.01 867.29,433.04 ZM 788.14 425.00 C788.25,424.12 788.36,423.64 788.50,423.58 C789.05,423.35 788.35,423.12 786.95,423.08 C785.55,423.04 783.86,423.54 783.20,424.20 C782.27,425.13 782.00,425.13 782.00,424.20 C782.00,423.54 780.99,422.96 779.75,422.92 C778.51,422.88 778.06,422.62 778.75,422.34 C779.65,421.98 779.95,419.11 779.82,412.17 L 779.64 402.50 L 779.07 410.00 L 778.50 417.50 L 778.77 410.00 C778.92,405.88 779.33,401.83 779.68,401.00 C780.39,399.36 780.68,398.41 780.88,397.21 C781.12,395.64 788.03,389.00 789.41,389.00 C790.19,389.00 791.01,388.48 791.22,387.84 C792.08,385.27 809.72,385.76 813.32,388.46 C813.48,388.58 813.62,388.69 813.75,388.79 C813.29,388.59 812.66,388.38 811.84,388.09 C808.83,387.05 808.76,387.08 810.32,388.80 C811.78,390.41 811.80,390.85 810.48,392.72 C809.51,394.11 809.26,394.67 810.01,395.18 C809.83,395.12 809.63,395.05 809.42,394.97 C804.77,393.20 797.58,393.81 793.90,396.28 C790.19,398.77 787.23,405.63 787.08,412.05 C786.97,417.07 788.39,418.00 796.20,418.00 L 803.00 418.00 L 803.00 425.00 ZM 810.35 452.25 C810.00,447.99 810.08,444.83 810.51,445.23 C810.95,445.64 811.89,445.19 812.62,444.23 C813.50,443.07 813.95,442.93 813.97,443.81 C813.99,444.53 814.45,444.84 815.00,444.50 C815.55,444.16 816.00,444.39 816.00,445.01 C816.00,445.63 816.70,446.84 817.55,447.69 C818.94,449.09 818.94,449.40 817.55,450.95 C816.70,451.89 816.01,453.52 816.03,454.58 C816.06,456.39 816.14,456.40 817.39,454.75 C817.55,454.54 817.73,454.36 817.93,454.19 L 818.34 456.69 C819.09,461.31 825.33,468.72 830.99,471.71 C836.02,474.37 844.20,474.78 849.35,472.63 C851.16,471.87 854.25,469.84 856.20,468.13 C858.16,466.41 860.25,465.00 860.83,465.00 C862.35,465.00 865.84,466.68 866.77,467.72 C866.24,467.17 864.86,466.50 863.25,466.06 C859.68,465.07 859.35,465.19 856.00,468.70 C854.08,470.72 853.27,471.80 854.21,471.10 C855.14,470.40 856.45,470.16 857.11,470.57 C857.84,471.02 858.05,470.89 857.65,470.24 C856.72,468.74 859.74,465.96 861.53,466.65 C862.34,466.96 863.00,468.09 863.00,469.17 C863.00,470.39 862.57,470.85 861.85,470.40 C861.08,469.93 860.96,470.13 861.50,471.00 C862.01,471.82 861.62,472.80 860.46,473.65 C859.45,474.39 859.11,475.00 859.70,475.00 C860.30,475.00 862.19,473.69 863.89,472.10 C865.59,470.51 866.98,468.75 867.00,468.16 C867.00,469.63 859.82,477.00 858.38,477.00 C857.62,477.00 857.00,477.38 857.00,477.85 C857.00,478.31 854.70,479.44 851.89,480.35 C846.15,482.20 837.02,482.41 831.73,480.89 C831.92,480.83 832.00,480.67 832.00,480.44 C832.00,480.12 830.62,478.71 828.93,477.29 C826.67,475.39 826.20,474.49 827.15,473.91 C827.85,473.47 828.98,473.57 829.66,474.13 C830.33,474.69 832.14,475.00 833.69,474.82 C836.37,474.51 836.28,474.39 831.73,472.15 C827.15,469.89 821.69,465.33 821.33,463.45 C821.13,462.47 819.00,461.49 819.00,462.38 C819.00,462.68 820.44,464.57 822.19,466.57 C823.95,468.57 825.45,471.03 825.52,472.03 C825.69,474.29 822.19,475.37 820.05,473.71 C818.67,472.64 818.66,472.70 819.93,474.32 C820.44,474.97 821.73,475.97 823.25,476.96 C819.97,474.98 817.14,472.71 815.65,470.73 C812.01,465.86 810.51,463.12 809.92,458.25 C810.75,461.80 810.94,459.52 810.35,452.25 ZM 780.87 428.50 C781.14,432.57 781.34,433.03 781.96,431.00 L 782.71 428.50 L 783.39 431.00 C785.17,437.58 785.64,444.90 784.82,453.30 C783.91,462.60 785.38,477.00 787.23,477.00 C787.69,477.00 787.94,465.07 787.78,450.50 C787.66,439.12 787.74,431.03 787.99,426.85 L 787.88 452.25 C787.82,467.24 787.80,479.79 787.85,480.14 C787.98,481.21 782.22,481.70 780.55,480.77 C780.05,480.49 779.70,479.77 779.47,477.72 L 780.00 451.00 C780.30,435.88 780.69,425.75 780.87,428.50 ZM 740.62 446.50 C740.31,439.90 740.45,432.48 740.95,430.00 C741.49,427.27 741.48,425.37 740.91,425.16 C740.40,424.98 740.24,424.42 740.55,423.91 C740.86,423.41 740.64,423.00 740.06,423.00 C739.35,423.00 739.02,429.62 739.06,443.25 C739.11,458.20 739.40,462.85 740.16,461.00 C740.80,459.47 740.98,453.86 740.62,446.50 ZM 282.23 502.83 C281.35,501.95 281.41,501.41 282.50,500.58 C283.68,499.69 283.28,498.81 280.14,495.50 C278.06,493.30 275.50,490.83 274.45,490.00 C272.59,488.54 272.58,488.57 274.24,491.18 C275.50,493.15 275.63,493.97 274.72,494.30 C273.98,494.58 275.23,496.55 277.96,499.38 C280.41,501.92 282.64,504.00 282.91,504.00 C283.18,504.00 282.88,503.48 282.23,502.83 ZM 320.50 523.32 C318.30,522.45 314.25,520.73 311.50,519.49 C308.75,518.25 305.49,516.93 304.25,516.55 C303.01,516.17 302.00,515.50 302.00,515.05 C302.00,514.60 300.99,513.99 299.75,513.69 C297.61,513.17 297.62,513.22 300.00,514.82 C301.37,515.74 303.43,517.49 304.57,518.70 C305.71,519.91 307.51,520.88 308.57,520.84 C309.63,520.81 312.98,521.72 316.00,522.86 C319.02,524.00 322.17,524.92 323.00,524.91 C323.83,524.90 322.70,524.19 320.50,523.32 ZM 413.20 392.80 C411.66,391.26 411.64,389.66 413.17,390.61 C413.81,391.00 413.48,390.18 412.42,388.77 C411.36,387.36 410.16,386.41 409.75,386.66 C409.00,387.12 408.59,384.74 408.96,382.10 C409.11,381.07 408.71,381.15 407.44,382.42 C405.81,384.05 405.49,383.93 401.61,380.26 C399.35,378.13 396.61,375.74 395.53,374.94 C394.44,374.15 397.12,376.96 401.47,381.19 C405.82,385.42 409.81,388.61 410.34,388.29 C410.89,387.95 410.98,388.22 410.56,388.91 C409.88,390.00 412.47,394.00 413.85,394.00 C414.15,394.00 413.86,393.46 413.20,392.80 ZM 426.69 420.50 C426.38,418.58 426.55,417.00 427.06,417.00 C427.58,417.00 428.00,416.52 428.00,415.94 C428.00,415.36 427.48,415.20 426.85,415.60 C426.13,416.04 425.96,415.87 426.40,415.16 C426.80,414.52 425.78,412.58 424.08,410.76 L 421.04 407.52 L 423.77 415.76 C425.27,420.29 426.67,424.00 426.88,424.00 C427.09,424.00 427.01,422.42 426.69,420.50 ZM 420.90 482.19 C421.55,480.96 421.82,479.52 421.49,478.99 C421.17,478.46 421.54,478.27 422.32,478.57 C423.39,478.98 423.62,478.48 423.25,476.52 C422.97,475.09 422.66,474.05 422.55,474.21 C422.43,474.37 420.42,478.10 418.08,482.50 C414.08,490.00 414.00,490.31 416.76,487.46 C418.38,485.80 420.24,483.42 420.90,482.19 ZM 770.19 421.25 C770.44,419.93 771.62,419.45 775.01,419.31 C778.59,419.17 779.00,419.30 777.00,419.96 C775.62,420.42 775.06,420.85 775.75,420.90 C778.72,421.14 776.66,423.00 773.43,423.00 C770.56,423.00 769.92,422.65 770.19,421.25 ZM 259.08 477.15 C258.49,476.04 258.00,474.17 258.00,472.99 C258.00,471.82 257.33,470.18 256.50,469.36 C255.59,468.45 255.00,468.31 255.00,468.99 C255.00,470.68 259.20,480.13 259.72,479.62 C259.96,479.37 259.68,478.26 259.08,477.15 ZM 264.17 467.40 C263.99,466.35 263.20,464.84 262.42,464.04 C261.18,462.76 261.00,462.84 261.00,464.70 C261.00,467.85 262.09,470.14 263.37,469.69 C263.99,469.47 264.35,468.44 264.17,467.40 ZM 292.03 508.05 C291.45,506.98 289.64,505.31 287.99,504.34 C286.35,503.36 285.00,502.22 285.00,501.78 C285.00,501.35 284.45,501.00 283.78,501.00 C282.82,501.00 291.65,509.78 292.79,509.96 C292.94,509.98 292.60,509.12 292.03,508.05 ZM 779.44 477.50 C779.08,474.03 779.00,466.98 779.00,452.51 L 779.00 425.11 L 779.23 451.80 ZM 347.17 492.02 C344.98,490.95 342.94,489.68 341.13,488.21 C337.31,485.13 334.56,481.48 332.66,476.53 C332.81,476.84 332.98,477.16 333.17,477.50 C336.17,483.14 342.41,489.56 347.17,492.02 ZM 392.00 521.90 C392.00,520.44 390.39,520.86 387.86,522.99 L 385.50 524.97 L 388.75 523.89 C390.54,523.29 392.00,522.40 392.00,521.90 ZM 265.56 471.30 C265.10,470.09 264.64,469.96 263.81,470.79 C262.98,471.62 263.04,472.34 264.06,473.57 C265.61,475.44 266.58,473.96 265.56,471.30 ZM 825.50 477.00 C823.63,475.76 823.10,475.01 824.10,475.01 C824.97,475.00 826.50,475.90 827.50,477.00 C829.78,479.51 829.30,479.51 825.50,477.00 ZM 398.00 508.60 C398.00,508.35 399.46,507.11 401.25,505.86 C403.56,504.24 404.09,504.09 403.08,505.34 C401.65,507.13 398.00,509.47 398.00,508.60 ZM 392.00 519.10 C392.00,518.26 396.10,516.77 396.71,517.38 C396.87,517.54 395.88,518.19 394.50,518.82 C393.13,519.44 392.00,519.57 392.00,519.10 ZM 346.00 488.11 C346.00,487.62 345.26,486.93 344.36,486.58 C342.99,486.06 342.92,486.20 343.98,487.48 C345.42,489.21 346.00,489.39 346.00,488.11 ZM 391.00 468.00 C391.00,467.45 391.45,467.00 392.00,467.00 C392.55,467.00 393.00,467.45 393.00,468.00 C393.00,468.55 392.55,469.00 392.00,469.00 C391.45,469.00 391.00,468.55 391.00,468.00 ZM 490.65 480.54 C491.80,479.73 493.09,479.39 493.53,479.79 C493.65,479.90 493.75,479.97 493.82,479.99 C491.88,480.83 489.95,481.35 487.90,481.58 C489.02,481.35 489.98,481.00 490.65,480.54 ZM 348.00 484.00 C347.10,483.42 346.98,483.02 347.69,483.02 C348.35,483.01 349.16,483.45 349.50,484.00 C350.27,485.24 349.92,485.24 348.00,484.00 ZM 312.76 529.99 C313.54,530.20 314.37,530.39 315.12,530.52 C316.89,530.83 319.05,531.50 319.92,532.01 C320.01,532.07 320.10,532.12 320.19,532.17 C317.61,531.53 315.15,530.81 312.76,529.99 ZM 869.75 452.46 C870.90,452.10 871.01,448.15 870.55,443.91 C871.19,448.11 871.14,451.79 870.08,452.45 C869.89,452.57 868.76,452.68 866.90,452.77 C868.44,452.66 869.48,452.55 869.75,452.46 ZM 937.59 431.43 C937.35,431.15 937.13,431.00 936.93,431.00 C936.42,431.00 936.11,430.60 936.25,430.12 C936.34,429.81 936.19,429.29 935.88,428.67 C936.49,429.55 937.06,430.48 937.59,431.43 ZM 930.81 423.04 C930.72,423.02 930.63,423.00 930.55,423.00 C929.79,423.00 928.97,422.44 928.72,421.75 C928.65,421.56 928.57,421.40 928.48,421.27 C929.28,421.81 930.06,422.40 930.81,423.04 ZM 432.48 411.96 C431.80,410.22 431.12,408.74 430.74,408.25 C430.20,407.56 430.04,407.00 430.39,407.00 C430.46,407.00 430.48,406.89 430.44,406.69 C431.18,408.43 431.85,410.19 432.48,411.96 ZM 419.25 387.34 C418.56,387.06 418.00,386.28 418.00,385.61 C418.00,385.49 417.95,385.32 417.85,385.12 C418.47,385.92 419.07,386.73 419.66,387.54 C419.56,387.48 419.43,387.41 419.25,387.34 ZM 391.31 404.55 C391.70,405.10 392.06,405.67 392.41,406.25 C392.18,406.09 391.94,406.00 391.73,406.00 C391.14,406.00 390.95,405.72 391.29,405.38 C391.45,405.21 391.45,404.91 391.31,404.55 ZM 811.47 435.54 C810.75,437.42 810.17,439.55 809.75,441.80 C809.99,439.34 810.49,437.71 811.47,435.54 ZM 611.59 423.13 C610.69,423.87 609.74,424.75 608.90,425.66 C607.83,426.83 606.88,427.96 606.08,429.00 C607.71,426.71 609.55,424.75 611.59,423.13 ZM 283.69 456.58 L 284.27 460.14 C283.99,459.33 283.80,458.08 283.69,456.58 ZM 941.47 442.71 C941.09,440.71 940.56,438.61 939.97,436.75 C940.64,438.66 941.14,440.66 941.47,442.71 ZM 600.36 440.88 L 599.82 444.03 C599.94,442.90 600.11,441.88 600.36,440.88 ZM 388.64 401.18 C389.21,401.81 389.75,402.45 390.26,403.11 C389.70,402.53 389.08,401.78 388.64,401.18 ZM 937.52 469.10 C937.71,468.55 937.78,468.09 937.71,467.69 C937.74,467.74 937.76,467.79 937.78,467.84 C937.88,468.15 937.78,468.58 937.52,469.10 ZM 599.93 455.47 L 600.33 457.95 C600.17,457.24 600.04,456.40 599.93,455.47 ZM 365.23 495.96 C364.63,495.97 364.03,495.96 363.43,495.94 ZM 404.66 513.29 C405.33,512.71 406.02,512.10 406.71,511.49 C406.04,512.10 405.35,512.70 404.66,513.29 ZM 349.67 493.12 C349.18,492.92 348.69,492.72 348.21,492.50 C348.76,492.74 349.24,492.94 349.67,493.12 ZM 395.09 475.22 C395.17,475.00 395.25,474.78 395.33,474.54 C395.25,474.77 395.17,475.00 395.09,475.22 ZM 348.72 404.71 C348.80,404.65 348.87,404.60 348.94,404.55 C348.87,404.60 348.80,404.65 348.72,404.71 Z" fill="rgb(69,43,30)"/>
<path d="M 357.84 534.08 C358.78,533.58 362.95,532.70 367.11,532.12 C381.30,530.14 399.50,519.68 411.98,506.32 C420.87,496.80 424.00,492.29 429.03,481.76 C446.01,446.25 437.85,403.30 408.75,374.91 C405.41,371.66 402.38,369.00 402.00,369.00 C401.62,369.00 400.00,367.88 398.41,366.50 C396.81,365.13 394.94,364.00 394.25,364.00 C393.56,364.00 393.00,363.62 393.00,363.15 C393.00,361.97 380.93,356.59 372.66,354.08 C362.93,351.13 357.27,350.48 342.50,350.62 C329.20,350.74 319.81,352.38 311.50,356.01 C309.30,356.98 306.05,358.32 304.28,358.99 C302.50,359.67 299.89,361.30 298.48,362.61 C297.06,363.92 295.10,365.00 294.14,365.00 C293.17,365.00 291.08,366.35 289.50,368.00 C287.92,369.65 286.15,371.00 285.56,371.00 C283.87,371.01 271.79,383.93 267.34,390.50 C262.27,397.98 257.89,406.56 258.71,407.38 C259.05,407.72 258.84,408.00 258.25,408.00 C257.30,408.00 256.19,411.14 255.42,416.00 C255.30,416.83 254.36,420.65 253.35,424.50 C251.24,432.56 250.92,454.73 252.82,461.50 C253.44,463.70 253.92,465.73 253.90,466.00 C253.81,467.15 259.32,481.54 260.02,482.00 C260.45,482.27 262.02,485.09 263.51,488.25 C265.01,491.41 266.63,494.00 267.12,494.00 C267.60,494.00 268.00,494.67 268.00,495.50 C268.00,496.33 268.38,497.00 268.85,497.00 C269.32,497.00 271.68,499.53 274.10,502.62 C279.99,510.13 282.26,512.29 290.50,518.18 C302.19,526.53 312.55,530.95 326.50,533.53 C334.70,535.04 355.37,535.41 357.84,534.08 ZM 507.58 505.50 C511.73,502.34 515.39,496.83 516.93,491.42 C518.51,485.86 519.53,424.37 518.10,420.70 C517.05,418.00 516.80,417.91 510.76,418.20 C505.14,418.47 504.47,418.73 504.18,420.75 C503.79,423.48 503.22,423.52 500.00,421.00 C498.62,419.92 496.80,419.03 495.95,419.02 C495.10,419.01 493.97,418.57 493.44,418.04 C492.42,417.02 482.46,416.55 477.70,417.30 C474.66,417.77 467.70,421.04 467.17,422.25 C466.98,422.66 466.23,423.00 465.49,423.00 C464.75,423.00 463.22,424.24 462.08,425.75 C460.95,427.26 459.63,428.98 459.15,429.56 C455.96,433.43 454.90,437.72 454.28,449.20 C453.86,456.94 454.09,458.51 456.31,463.36 C459.78,470.94 466.71,477.53 473.28,479.51 C485.00,483.02 491.10,482.44 499.09,477.02 C501.52,475.38 503.84,474.03 504.25,474.02 C506.43,473.97 503.50,490.41 500.73,493.81 C496.93,498.45 481.00,499.75 473.96,495.98 C472.02,494.94 471.37,495.17 468.68,497.86 C465.79,500.75 465.70,501.07 467.06,503.61 C469.11,507.44 473.84,509.06 485.41,509.87 C496.93,510.69 502.14,509.66 507.58,505.50 ZM 572.23 479.68 C577.21,477.59 585.30,469.35 588.03,463.57 C591.41,456.41 591.87,445.30 589.11,437.96 C586.95,432.25 585.30,429.63 581.00,425.12 C575.15,418.99 571.08,417.59 559.00,417.54 C550.56,417.51 547.81,417.87 545.00,419.39 C543.08,420.42 541.14,421.88 540.70,422.64 C540.26,423.39 539.28,424.00 538.52,424.00 C537.76,424.00 536.16,425.38 534.96,427.06 C532.06,431.13 527.90,439.00 528.65,439.00 C528.98,439.00 528.78,439.56 528.22,440.25 C526.86,441.89 526.90,456.68 528.27,459.95 C529.45,462.78 529.69,463.54 529.88,464.99 C529.94,465.54 532.59,468.70 535.75,472.01 C543.35,479.97 549.14,482.20 560.62,481.58 C565.09,481.33 570.31,480.48 572.23,479.68 ZM 639.40 481.05 C643.84,480.02 651.00,475.22 652.54,472.23 C653.11,471.12 654.10,469.58 654.74,468.81 C655.68,467.68 655.26,467.06 652.61,465.63 L 649.31 463.85 L 645.34 467.78 C640.99,472.09 633.17,474.73 628.23,473.56 C623.83,472.51 617.01,469.57 617.00,468.71 C617.00,468.27 616.05,466.92 614.88,465.71 C608.40,458.96 607.02,446.27 611.75,436.94 C618.23,424.15 634.84,420.63 644.49,429.99 C647.40,432.81 647.94,432.98 650.35,431.89 C652.02,431.13 653.00,429.88 653.00,428.54 C653.00,425.09 643.41,417.01 641.05,418.47 C640.55,418.78 639.89,418.64 639.59,418.15 C639.30,417.67 635.72,417.20 631.66,417.10 C617.80,416.78 608.15,422.84 602.36,435.50 C600.09,440.46 599.61,442.89 599.62,449.50 C599.62,454.49 600.15,458.44 601.03,460.00 C601.80,461.38 602.47,462.73 602.51,463.00 C602.86,465.05 604.27,468.00 604.91,468.00 C605.33,468.00 606.18,469.11 606.80,470.46 C608.07,473.25 614.32,477.50 621.00,480.14 C625.94,482.08 633.36,482.45 639.40,481.05 ZM 706.71 479.17 C711.84,476.53 718.49,470.30 719.44,467.25 C719.82,466.01 720.53,465.00 721.02,465.00 C722.63,465.00 723.99,457.63 723.97,449.00 C723.96,440.83 722.35,434.81 719.09,430.77 C714.33,424.85 710.30,421.00 708.86,421.00 C707.92,421.00 706.44,420.30 705.58,419.44 C704.72,418.58 703.59,418.13 703.08,418.45 C702.56,418.77 701.86,418.58 701.51,418.02 C700.51,416.40 683.28,417.45 681.22,419.25 C680.28,420.08 678.58,421.04 677.46,421.38 C673.89,422.47 668.21,428.69 665.30,434.70 C662.90,439.67 662.52,441.64 662.61,448.50 C662.75,458.37 663.02,459.71 666.02,465.53 C669.06,471.45 675.75,477.36 682.36,479.98 C689.20,482.69 700.60,482.31 706.71,479.17 ZM 787.85 480.14 C787.80,479.79 787.82,467.24 787.88,452.25 L 788.00 425.00 L 795.50 425.00 L 803.00 425.00 L 803.00 421.50 L 803.00 418.00 L 796.20 418.00 C788.39,418.00 786.97,417.07 787.08,412.05 C787.23,405.63 790.19,398.77 793.90,396.28 C797.58,393.81 804.77,393.20 809.42,394.97 C811.70,395.84 812.15,395.60 813.56,392.88 C815.03,390.04 815.02,389.73 813.32,388.46 C809.72,385.76 792.08,385.27 791.22,387.84 C791.01,388.48 790.19,389.00 789.41,389.00 C788.03,389.00 781.12,395.64 780.88,397.21 C780.68,398.41 780.39,399.36 779.68,401.00 C779.33,401.83 778.92,405.88 778.77,410.00 L 778.50 417.50 L 773.69 417.81 C768.94,418.11 768.89,418.15 769.19,421.31 C769.49,424.36 769.71,424.51 774.25,424.80 L 779.00 425.11 L 779.00 452.51 C779.00,476.23 779.21,480.02 780.55,480.77 C782.22,481.70 787.98,481.21 787.85,480.14 ZM 851.89 480.35 C854.70,479.44 857.00,478.31 857.00,477.85 C857.00,477.38 857.62,477.00 858.38,477.00 C859.82,477.00 867.00,469.63 867.00,468.16 C867.00,467.26 862.59,465.00 860.83,465.00 C860.25,465.00 858.16,466.41 856.20,468.13 C854.25,469.84 851.16,471.87 849.35,472.63 C844.20,474.78 836.02,474.37 830.99,471.71 C825.33,468.72 819.09,461.31 818.34,456.69 L 817.75 453.08 L 843.33 453.13 C857.39,453.16 869.43,452.85 870.08,452.45 C872.03,451.25 870.58,439.91 867.70,433.86 C863.76,425.59 853.21,416.51 849.92,418.55 C849.41,418.86 849.00,418.68 849.00,418.15 C849.00,417.58 845.22,417.29 839.75,417.44 C832.59,417.63 829.54,418.18 826.28,419.85 C819.76,423.19 815.34,427.60 812.29,433.82 C809.76,438.97 809.50,440.48 809.55,450.00 C809.60,461.08 810.37,463.66 815.65,470.73 C818.22,474.16 824.83,478.46 830.84,480.61 C835.95,482.43 845.82,482.31 851.89,480.35 ZM 923.48 480.35 C928.78,478.55 938.51,470.04 937.78,467.84 C937.54,467.12 935.93,466.12 934.20,465.63 C931.38,464.82 930.59,465.12 926.77,468.41 C924.42,470.44 921.86,472.62 921.07,473.25 C919.42,474.60 909.20,474.41 905.41,472.97 C903.99,472.43 902.42,472.24 901.92,472.55 C901.41,472.86 901.00,472.64 901.00,472.06 C901.00,471.48 900.55,471.00 899.99,471.00 C898.42,471.00 893.00,465.83 893.00,464.33 C893.00,463.60 892.60,463.00 892.12,463.00 C891.39,463.00 889.00,455.69 889.00,453.46 C889.00,453.09 894.96,452.90 902.25,453.02 C909.54,453.14 921.51,453.19 928.86,453.12 L 942.23 453.00 L 941.84 446.18 C941.08,432.76 932.52,420.93 921.50,418.09 C916.08,416.70 905.56,416.94 900.02,418.59 C894.14,420.33 885.65,427.85 882.79,433.85 C880.93,437.76 880.57,440.26 880.54,449.50 C880.49,462.17 881.89,465.94 889.40,473.46 C897.04,481.09 912.26,484.17 923.48,480.35 ZM 747.70 453.25 L 747.50 425.50 L 755.74 425.21 L 763.97 424.92 L 763.63 421.71 L 763.28 418.50 L 755.51 418.21 L 747.74 417.91 L 748.24 410.71 C748.84,401.93 750.30,398.59 754.73,395.86 C758.02,393.83 761.31,393.69 770.38,395.19 C771.75,395.42 772.59,394.53 773.54,391.85 L 774.83 388.19 L 770.47 387.10 C761.11,384.74 752.17,386.16 746.62,390.90 C741.71,395.09 739.63,400.21 739.19,409.25 L 738.76 418.00 L 734.38 418.00 C730.04,418.00 730.00,418.03 730.00,421.50 C730.00,424.98 730.02,425.00 734.50,425.00 L 739.00 425.00 L 739.00 453.00 L 739.00 481.00 L 743.45 481.00 L 747.89 481.00 L 747.70 453.25 ZM 327.00 524.43 C315.67,521.98 300.28,514.67 292.62,508.11 C285.50,502.00 272.00,486.56 272.00,484.52 C272.00,484.21 270.91,482.28 269.58,480.23 C266.60,475.63 262.63,463.06 260.91,452.79 C257.64,433.20 266.00,405.29 279.75,389.95 C282.09,387.34 284.00,384.82 284.00,384.35 C284.00,383.88 285.64,382.14 287.64,380.49 C289.64,378.85 291.86,376.94 292.57,376.25 C293.28,375.56 294.34,375.00 294.93,375.00 C295.52,375.00 296.00,374.55 296.00,374.00 C296.00,373.45 296.48,373.00 297.07,373.00 C297.66,373.00 298.82,372.33 299.64,371.50 C300.47,370.67 302.01,370.00 303.07,370.00 C304.13,370.00 305.00,369.57 305.00,369.05 C305.00,368.52 306.46,367.65 308.25,367.11 C310.04,366.57 313.52,365.37 316.00,364.46 C325.10,361.10 331.73,359.79 341.50,359.42 C363.11,358.60 382.47,365.25 398.83,379.13 C405.94,385.16 416.09,397.51 417.43,401.75 C417.82,402.99 418.63,404.00 419.23,404.00 C419.84,404.00 420.08,404.26 419.76,404.57 C419.45,404.89 420.45,407.92 421.98,411.32 C423.51,414.72 425.56,421.10 426.53,425.50 C428.27,433.39 428.86,449.45 427.63,455.50 C427.30,457.15 426.83,459.62 426.60,461.00 C426.36,462.38 426.09,463.50 426.00,463.50 C425.91,463.50 425.64,464.71 425.39,466.19 C424.78,469.92 418.55,482.29 413.66,489.50 C408.32,497.37 398.01,507.46 389.95,512.70 C383.10,517.15 369.62,522.96 361.74,524.85 C355.27,526.41 334.98,526.16 327.00,524.43 ZM 376.32 493.98 C383.02,491.48 390.71,484.25 394.18,477.21 C396.44,472.62 396.50,471.80 396.50,444.00 C396.50,416.78 396.39,415.25 394.25,409.95 C391.48,403.09 385.44,396.86 378.09,393.24 C373.23,390.86 371.33,390.50 363.50,390.53 C356.46,390.55 353.47,391.03 349.77,392.72 C338.86,397.68 331.35,407.21 330.30,417.41 L 329.74 422.78 L 316.11 423.15 C303.53,423.50 302.13,423.73 297.99,426.17 C292.70,429.28 287.32,435.09 285.18,440.00 C283.47,443.91 282.97,457.34 284.41,460.50 C285.44,462.75 285.69,463.54 285.88,465.04 C285.94,465.62 288.36,468.49 291.25,471.43 C295.60,475.85 297.41,476.96 301.80,477.88 C311.92,480.02 316.24,479.29 321.79,474.53 C323.95,472.68 324.08,471.91 323.93,461.28 L 323.77 450.00 L 320.51 450.00 C315.81,450.00 314.83,451.80 315.09,459.89 C315.23,464.15 314.85,467.47 314.14,468.34 C310.99,472.13 302.30,470.46 297.25,465.10 C295.12,462.83 292.01,454.52 292.00,451.07 C291.98,447.70 295.62,439.40 297.94,437.50 C304.46,432.16 306.90,431.48 318.25,431.81 L 329.00 432.13 L 329.02 447.31 C329.04,470.51 332.13,480.93 341.13,488.21 C350.28,495.63 365.33,498.09 376.32,493.98 ZM 478.49 465.87 C474.06,463.51 469.03,458.70 468.95,456.76 C468.92,456.07 468.65,453.58 468.35,451.23 C467.76,446.56 470.39,437.46 473.00,435.20 C476.05,432.54 482.62,430.04 486.50,430.06 C490.60,430.07 492.84,431.01 497.12,434.50 C504.45,440.48 505.14,456.43 498.35,462.73 C492.40,468.24 485.09,469.40 478.49,465.87 ZM 551.63 466.44 C546.65,464.62 544.34,461.89 542.49,455.65 C540.54,449.09 540.60,447.85 543.13,441.69 C545.72,435.40 548.75,432.41 553.95,431.01 C560.36,429.29 565.84,430.74 570.87,435.49 C575.10,439.49 575.29,439.91 575.74,446.64 C576.40,456.39 573.67,462.81 567.58,465.85 C562.68,468.30 557.25,468.50 551.63,466.44 ZM 688.50 473.03 C682.17,471.41 676.63,466.88 673.17,460.50 C671.04,456.56 670.90,442.51 672.96,438.41 C676.30,431.75 680.62,427.52 685.38,426.24 C696.42,423.29 704.69,425.94 711.19,434.51 C713.22,437.19 714.68,439.71 714.43,440.12 C714.17,440.53 714.42,441.14 714.98,441.49 C716.50,442.43 716.21,451.92 714.50,457.70 C712.79,463.45 707.41,469.63 701.81,472.29 C698.03,474.08 693.57,474.33 688.50,473.03 ZM 818.00 443.97 C818.00,440.81 820.83,434.80 823.80,431.62 C827.16,428.04 835.49,424.02 839.57,424.01 C850.06,423.98 859.46,432.03 861.63,442.92 L 862.25 446.00 L 840.12 446.00 C818.55,446.00 818.00,445.95 818.00,443.97 ZM 889.68 445.27 C888.78,443.75 889.26,438.45 890.52,436.00 C892.13,432.87 895.47,429.85 900.00,427.39 C901.92,426.35 903.79,425.10 904.15,424.60 C905.39,422.89 916.97,424.75 922.51,427.55 C926.95,429.79 928.35,431.18 930.45,435.39 C931.85,438.20 933.11,441.62 933.25,443.00 L 933.50 445.50 L 911.82 445.77 C899.90,445.92 889.94,445.69 889.68,445.27 ZM 357.12 486.05 C351.52,484.64 345.73,479.86 342.50,473.97 L 339.50 468.50 L 339.50 443.50 C339.50,419.81 339.61,418.26 341.69,414.00 C342.90,411.52 344.47,408.81 345.19,407.98 C354.06,397.66 372.19,397.16 380.68,407.00 C386.69,413.98 387.13,416.73 386.80,445.52 L 386.50 471.50 L 383.64 475.72 C377.96,484.08 366.71,488.47 357.12,486.05 Z" fill="rgb(226,226,226)"/>
</g>
</svg>
